<svg width="85" height="53" viewBox="0 0 85 53" fill="none" xmlns="http://www.w3.org/2000/svg">
<g clip-path="url(#clip0_18_42)">
<path d="M79.5682 6.51481C79.5682 6.5766 79.5682 6.65385 79.5523 6.7002C79.4727 7.30272 79.4727 7.90525 79.5204 8.52323C79.5523 8.67773 79.5841 8.83222 79.7116 8.95582C79.9187 9.18755 80.2372 9.14121 80.3647 8.86312C80.4284 8.72408 80.4284 8.58502 80.3965 8.44598C80.2372 7.8589 80.2054 7.24093 80.1895 6.63839C80.1895 6.6075 80.1895 6.56115 80.1895 6.51481C80.3647 6.49935 80.524 6.4839 80.6673 6.4839C80.7789 6.46846 80.8744 6.453 80.9541 6.40665C81.193 6.28306 81.193 6.02043 80.9381 5.89683C80.8425 5.85048 80.7151 5.83502 80.6037 5.83502C80.2054 5.85048 79.8072 5.85048 79.4089 5.85048C79.2656 5.85048 79.1222 5.86593 78.9788 5.88137C78.8992 5.89683 78.8036 5.89683 78.74 5.94318C78.6284 5.98952 78.5648 6.06676 78.5648 6.17491C78.5807 6.28306 78.6284 6.34486 78.74 6.39121C78.8036 6.43756 78.8833 6.453 78.9629 6.453C79.154 6.46846 79.3612 6.49935 79.5682 6.51481ZM83.9487 7.22548C83.9487 7.24093 83.9646 7.25637 83.9646 7.25637C84.0283 7.67351 84.0921 8.0752 84.1398 8.47688C84.1558 8.61592 84.1717 8.73952 84.2673 8.84766C84.4743 9.1103 84.793 9.0794 84.9362 8.80132C85 8.66227 85.0159 8.52323 84.9841 8.36874C84.8885 7.90525 84.8407 7.44176 84.7451 6.99373C84.6814 6.71564 84.6018 6.453 84.5222 6.20582C84.4743 6.05132 84.3629 5.94317 84.1717 5.92772C83.9806 5.89683 83.8372 5.98952 83.7575 6.12857C83.662 6.25216 83.5823 6.37575 83.5186 6.51481C83.4071 6.76199 83.3115 7.00919 83.1841 7.24093C83.1681 7.30272 83.1522 7.34908 83.1204 7.39541C83.1045 7.36452 83.0886 7.34908 83.0886 7.34908C82.8814 6.96284 82.6903 6.5766 82.4833 6.20582C82.4513 6.17491 82.4354 6.14401 82.4195 6.11312C82.3239 5.97407 82.2125 5.89683 82.0372 5.89683C81.8779 5.91227 81.7504 6.00497 81.6709 6.14401C81.639 6.20582 81.639 6.25216 81.6231 6.31396C81.5593 6.80834 81.4796 7.30272 81.416 7.79711C81.3841 8.0752 81.3682 8.35328 81.3682 8.63137C81.3523 8.69317 81.3682 8.77041 81.4 8.83222C81.4319 8.95581 81.5275 9.03307 81.6549 9.04851C81.8142 9.06396 81.9257 9.01761 81.9735 8.89401C82.0212 8.80132 82.0372 8.72408 82.0532 8.64683C82.1169 8.36874 82.1646 8.1061 82.2125 7.84346C82.2443 7.68896 82.2602 7.56536 82.308 7.39541C82.3398 7.45722 82.3717 7.50357 82.4036 7.54991C82.5469 7.73531 82.6903 7.9207 82.8655 8.0752C83.0407 8.19879 83.1841 8.18334 83.3274 8.04429C83.3594 8.01339 83.3753 7.99795 83.4071 7.96704C83.5505 7.75076 83.7257 7.53447 83.869 7.31817C83.9009 7.28727 83.9168 7.25637 83.9487 7.22548Z" fill="black"/>
<path d="M47.2463 6.81832C47.1355 7.11193 47.1144 7.32346 47.1655 7.49928C47.222 7.73835 47.3685 7.81663 47.5674 7.75582C49.4384 7.30709 53.5411 8.58078 55.0601 8.93577C55.4183 9.01031 55.7097 8.56179 55.4653 8.15967C55.1085 7.77024 51.0076 6.10294 49.4429 6.01204C48.8296 5.97842 47.7331 5.82587 47.2463 6.81832Z" fill="black"/>
<path d="M63.2805 1.42115C63.4798 1.53277 63.5913 1.63926 63.6463 1.75823C63.7283 1.91429 63.6851 2.02227 63.5474 2.07736C62.3106 2.66279 60.6649 5.1832 60.0006 6.05246C59.8395 6.25242 59.4681 6.13622 59.412 5.80738C59.4235 5.43556 60.8824 2.70036 61.6965 1.95539C62.0165 1.66453 62.5451 1.09382 63.2805 1.42115Z" fill="black"/>
<path d="M53.4313 0.180436C53.6709 0.00532274 53.9198 -0.0560422 54.047 0.0577594C55.913 1.60554 56.9025 4.05658 57.5152 6.30046C57.5383 6.35274 57.5397 6.42776 57.5213 6.50601C57.5136 6.5729 57.4633 6.64356 57.3832 6.69824C57.2977 6.7586 57.2242 6.77698 57.1896 6.72497C56.3717 5.64609 51.7007 1.44837 53.4313 0.180436Z" fill="black"/>
<path d="M13.9169 27.0151C14.3642 26.6921 14.8504 26.4233 15.3648 26.2146C15.9031 26.0654 16.4769 26.0901 16.9994 26.2852C17.5218 26.4804 17.9646 26.8351 18.2607 27.296C18.5255 27.7556 18.6291 28.2863 18.556 28.8082C18.4829 29.3298 18.237 29.8144 17.8552 30.1889C17.5593 30.4925 17.2233 30.7569 16.8562 30.9754C15.2201 32.0006 13.5694 32.9695 11.9188 33.9947C11.581 34.2513 11.2227 34.4814 10.8473 34.6828C10.2763 34.959 9.62366 35.033 9.00233 34.892C8.381 34.751 7.83003 34.4037 7.44469 33.9105C7.15662 33.5612 6.91351 33.1792 6.72072 32.7729C5.15696 29.5851 3.5353 26.4112 2.02945 23.1671C1.33444 21.7629 0.769751 20.1478 0.21954 18.589C-0.0185065 18.1361 -0.0649916 17.6111 0.089983 17.1254C0.244958 16.6397 0.589165 16.2319 1.04939 15.9885C1.50961 15.7452 2.04953 15.6857 2.55434 15.8226C3.05914 15.9594 3.489 16.2818 3.75247 16.7213C4.56234 17.7651 5.27924 18.8739 5.89541 20.0356C7.45916 22.8442 8.95054 25.6528 10.4564 28.3773C10.5441 28.5279 10.6407 28.6731 10.746 28.8126C11.8794 28.3504 12.9454 27.7461 13.9169 27.0151Z" fill="black"/>
<path d="M30.0853 26.0353C26.509 30.0938 20.5145 29.0686 17.5028 23.8445C15.3599 20.137 14.9834 14.014 19.6458 10.1521C20.6414 9.34358 21.8319 8.7928 23.1063 8.55115C24.6688 8.33389 26.2622 8.60125 27.6586 9.31504C29.0551 10.0288 30.1831 11.1525 30.8817 12.5255C33.43 17.0194 33.068 22.749 30.0853 26.0353ZM28.6374 16.57C28.2574 15.4656 27.4952 14.5228 26.4799 13.9017C25.9055 13.5045 25.2074 13.3114 24.5033 13.3549C23.7992 13.3984 23.132 13.6758 22.614 14.1404C20.5435 15.924 20.1091 20.1511 21.6149 22.6648C21.8069 23.0747 22.0887 23.439 22.441 23.7322C22.7932 24.0254 23.2073 24.2404 23.6542 24.362C24.101 24.4838 24.5699 24.5094 25.028 24.437C25.4862 24.3645 25.9223 24.1958 26.3063 23.9427C27.4287 23.0987 28.2521 21.9366 28.662 20.6178C29.0721 19.299 29.0483 17.8891 28.594 16.5841L28.6374 16.57Z" fill="black"/>
<path d="M44.6802 18.3394C44.3141 18.4158 43.9359 18.4204 43.5678 18.3528C43.1999 18.2852 42.8495 18.1471 42.5374 17.9463C42.2643 17.7947 42.0292 17.5865 41.849 17.3363C41.6689 17.0861 41.5482 16.8004 41.4957 16.4995C41.443 16.1987 41.4598 15.8904 41.5447 15.5966C41.6297 15.3028 41.7809 15.0309 41.9872 14.8005C42.3466 14.3375 42.8569 14.006 43.4351 13.8596C44.9448 13.4347 46.499 13.1756 48.0685 13.0873C48.4133 13.0484 48.7627 13.0767 49.096 13.1705C49.4294 13.2645 49.7401 13.4219 50.0099 13.6339C50.2796 13.8458 50.503 14.1079 50.6669 14.4047C50.8307 14.7015 50.9319 15.0271 50.9643 15.3623C51.4167 17.0089 51.4663 18.7354 51.109 20.4039C49.806 25.7965 45.3174 27.6502 40.2786 25.9229C38.8642 25.4611 37.624 24.6005 36.7167 23.4513C35.5066 22.0673 34.6485 20.427 34.2118 18.6625C33.8579 17.0912 33.8967 15.4607 34.3249 13.907C34.7531 12.3532 35.5583 10.9213 36.6732 9.73086C37.7314 8.43697 39.1047 7.41869 40.6696 6.76769C41.6584 6.23908 42.8155 6.08877 43.9129 6.34639C44.1619 6.41322 44.3878 6.54343 44.5674 6.72352C44.747 6.90362 44.8737 7.12703 44.9343 7.3706C44.9949 7.61416 44.9871 7.86901 44.9119 8.10871C44.8366 8.3484 44.6968 8.56422 44.5066 8.73377C44.145 9.05123 43.7522 9.33346 43.3337 9.57638C42.0465 10.3715 40.9263 11.396 40.0324 12.5957C39.4466 13.372 39.043 14.2635 38.8505 15.2073C38.6578 16.151 38.6807 17.1243 38.9176 18.0587C39.246 19.3326 39.9746 20.4761 41.0025 21.3307C44.188 24.1395 48.3291 21.429 47.6051 17.5952C46.5482 17.848 45.6214 18.1148 44.6802 18.3394Z" fill="black"/>
<path d="M64.1406 26.2599C59.4349 29.0687 54.0776 26.2599 52.9047 20.3618C52.0505 16.1487 53.6721 10.2505 59.3481 8.00351C60.5557 7.53573 61.8655 7.37149 63.1561 7.52603C64.7066 7.80133 66.129 8.54168 67.2226 9.64272C68.3162 10.7437 69.0261 12.1499 69.2518 13.663C70.2074 18.6765 68.0356 24.0271 64.1406 26.2599ZM65.7769 16.8087C65.7754 15.6421 65.3499 14.5132 64.5751 13.6209C64.1609 13.069 63.5621 12.6735 62.8809 12.5018C62.1996 12.3303 61.4782 12.3932 60.8393 12.68C58.291 13.7472 56.4956 17.6232 57.1472 20.4741C57.197 20.9215 57.3468 21.353 57.5864 21.7383C57.826 22.1236 58.1495 22.4536 58.5343 22.7051C58.919 22.9565 59.3557 23.1234 59.8139 23.1941C60.2721 23.2647 60.7407 23.2375 61.1869 23.1143C62.5339 22.6579 63.7002 21.8049 64.523 20.6745C65.3459 19.544 65.7843 18.1925 65.7769 16.8087Z" fill="black"/>
<path d="M74.0106 27.4397C73.9396 27.9536 73.661 28.4192 73.236 28.7339C72.811 29.0486 72.2746 29.1867 71.7446 29.1178C71.2147 29.0489 70.7347 28.7786 70.4103 28.3664C70.0857 27.9544 69.9434 27.434 70.0144 26.92C70.0854 26.406 70.3641 25.9405 70.789 25.6257C71.214 25.311 71.7505 25.1729 72.2804 25.2418C72.8103 25.3107 73.2903 25.5809 73.6149 25.9931C73.9393 26.4053 74.0818 26.9257 74.0106 27.4397ZM72.7509 8.49502C73.0263 8.0871 73.4303 7.77646 73.9027 7.60942C74.3749 7.44239 74.8902 7.42791 75.3717 7.56815C75.8612 7.68693 76.2936 7.9652 76.5968 8.35635C76.8999 8.74751 77.0552 9.2278 77.0369 9.7168C76.973 10.5012 76.852 11.2802 76.6749 12.048C76.1971 14.6461 75.7337 17.244 75.227 19.814C74.9953 20.8392 74.6912 21.8223 74.3581 22.8614C74.2423 23.1863 74.0487 23.4798 73.7935 23.7181C73.6348 23.8973 73.4321 24.0348 73.2041 24.1178C72.976 24.2009 72.7302 24.2268 72.4891 24.1932C72.2481 24.1596 72.0196 24.0675 71.8249 23.9256C71.6303 23.7836 71.4757 23.5963 71.3755 23.3811C71.2033 22.9949 71.1098 22.5799 71.1003 22.1593C71.1003 20.4179 71.1003 18.6625 71.2162 16.907C71.413 14.4018 71.8001 11.914 72.3745 9.46401C72.4421 9.13577 72.5695 8.82188 72.7509 8.53715V8.49502Z" fill="black"/>
<path fill-rule="evenodd" clip-rule="evenodd" d="M7.79946 38.7247C7.6285 39.0948 7.58162 39.5075 7.66516 39.9047C7.72074 40.4282 7.84281 40.9431 8.0286 41.4377C8.26055 42.0433 8.5201 42.6422 8.84014 43.3804C8.91374 43.5502 8.99065 43.7275 9.07113 43.9141C9.50272 44.9141 10.0442 46.1921 10.7666 48.0417C10.971 48.5672 11.1526 49.0969 11.3354 49.6303C11.4092 49.8458 11.4833 50.062 11.5592 50.2787C11.8312 51.0491 12.2991 51.7412 12.9194 52.2898C13.1827 52.5913 13.5321 52.811 13.9238 52.9209C14.3232 53.0329 14.748 53.0258 15.1431 52.9005C15.5382 52.7751 15.8853 52.5373 16.1392 52.218C16.3881 51.9049 16.5361 51.5277 16.5649 51.1336C16.7264 50.3658 16.6713 49.5697 16.4051 48.8295C15.9826 47.6005 15.5014 46.3697 14.9465 45.1659L14.9439 45.1606C14.031 43.2771 13.1031 41.4067 12.1312 39.5356L12.1239 39.5225C11.8394 39.035 11.4697 38.5992 11.0313 38.2347C10.7468 37.9093 10.3542 37.6899 9.92072 37.6142C9.47798 37.537 9.02136 37.6148 8.63238 37.8339C8.2644 38.0377 7.9727 38.3496 7.79946 38.7247Z" fill="black"/>
<path fill-rule="evenodd" clip-rule="evenodd" d="M21.7426 34.087C20.3112 33.7274 18.8163 33.675 17.3621 33.9335C16.2357 34.0411 15.1279 34.2931 14.3587 34.7922C13.9674 35.0463 13.6511 35.3724 13.4751 35.7871C13.2982 36.2039 13.2756 36.6807 13.4206 37.2119C13.6853 38.1849 14.0291 39.131 14.3717 40.074L14.4271 40.2268L14.4285 40.2301C15.4599 42.9698 16.5011 45.7001 17.5519 48.4211C17.6744 48.8499 17.8477 49.2635 18.0682 49.6537L18.0723 49.6609C18.3636 50.1456 18.7373 50.5791 19.1774 50.9432C19.3976 51.1434 19.6698 51.282 19.965 51.3439C20.2631 51.4063 20.5731 51.3882 20.8613 51.2914C21.1495 51.1946 21.4048 51.023 21.5993 50.7951C21.7907 50.5709 21.916 50.3009 21.962 50.0135C22.1519 49.2327 22.0911 48.4142 21.7875 47.6678C21.6928 47.4167 21.6185 47.16 21.5402 46.8898C21.5141 46.7997 21.4876 46.7081 21.4597 46.6147C23.8648 45.7029 26.4239 44.4768 27.3238 41.6244C27.6762 40.6387 27.7056 39.5714 27.4079 38.5687C27.1099 37.565 26.4985 36.6753 25.658 36.0222C24.514 35.1079 23.1777 34.4474 21.7426 34.087ZM17.7749 37.5856C17.8223 37.5723 17.87 37.56 17.9179 37.5486C19.4837 37.3098 21.0857 37.628 22.4289 38.4442C23.0209 38.8435 23.2634 39.2871 23.305 39.714C23.348 40.1535 23.1832 40.6298 22.8522 41.0877C22.2267 41.9525 21.0853 42.6448 20.0543 42.7738C19.3026 41.0949 18.5393 39.3481 17.7749 37.5856Z" fill="black"/>
<path d="M31.2856 31.0138C32.9902 30.2502 35.1017 30.1183 36.754 30.6552C37.1701 30.7728 37.5311 31.027 37.7753 31.3746C38.0179 31.7199 38.1299 32.1361 38.0925 32.5521C38.0901 32.8222 38.0217 33.0879 37.8931 33.3276C37.7622 33.5717 37.5727 33.7815 37.3405 33.9395C37.1083 34.0974 36.8403 34.199 36.5592 34.2352C36.278 34.2716 35.992 34.2417 35.7252 34.1481L35.705 34.141L35.6859 34.1313C35.5494 34.062 35.4044 34.0099 35.2545 33.9759L35.245 33.9738C34.0827 33.6744 32.9863 34.1706 32.5858 34.7802C32.3948 35.0708 32.3711 35.3643 32.5302 35.6312C32.7006 35.917 33.1184 36.2378 33.9639 36.4664C34.1965 36.5283 34.4348 36.5881 34.6766 36.6488C35.3452 36.8167 36.04 36.9911 36.7119 37.2329L36.7144 37.2338C39.814 38.3777 40.9682 40.7466 40.573 42.9748C40.1822 45.1783 38.2848 47.1836 35.4316 47.6566C34.3934 47.8798 33.3129 47.8364 32.2972 47.5305C31.2789 47.2237 30.361 46.664 29.6348 45.9066L29.6158 45.8868C29.3866 45.6014 29.2323 45.2662 29.164 44.9105C29.1011 44.5895 29.1342 44.2578 29.2593 43.9543C29.3836 43.6527 29.594 43.3917 29.8653 43.2015C30.152 42.9859 30.4976 42.8565 30.8594 42.8295C31.2199 42.8027 31.5806 42.8787 31.8972 43.048C32.2134 43.1962 32.5075 43.3852 32.7715 43.61L32.7765 43.6141C33.2435 44.0283 33.8085 44.1362 34.3503 44.0363C34.9 43.9348 35.4169 43.6194 35.7494 43.2008C36.0797 42.7849 36.2123 42.2908 36.0549 41.8111C35.8966 41.328 35.4205 40.7866 34.3744 40.3341C34.1009 40.2215 33.8174 40.1306 33.5224 40.0422C33.4429 40.0184 33.362 39.9946 33.2802 39.9706C33.0621 39.9064 32.8377 39.8402 32.6176 39.7674C32.4661 39.7172 32.3158 39.6698 32.1669 39.6227C31.76 39.4942 31.3633 39.3689 30.9815 39.2009C30.1506 38.9265 29.4327 38.3996 28.9347 37.6982C28.4347 36.994 28.1831 36.1519 28.2173 35.2976C28.22 33.2158 29.5719 31.7816 31.2856 31.0138Z" fill="black"/>
<path d="M52.8966 30.792C52.5661 30.6354 52.2006 30.5611 51.8331 30.5757C51.4656 30.5904 51.1076 30.6935 50.7915 30.876C50.4774 31.0572 50.2144 31.3108 50.0259 31.6145C49.8531 31.8702 49.7335 32.1562 49.6739 32.4565C49.6143 32.7565 49.6157 33.0649 49.678 33.3642C49.7396 33.7489 49.8078 34.1231 49.8752 34.492C49.9868 35.1026 50.0954 35.6995 50.167 36.308L50.1697 36.3234C50.3327 37.2778 50.4181 38.243 50.4258 39.2102L50.4265 39.224C50.4822 40.2686 50.1153 41.2928 49.4043 42.0793L49.393 42.0933C49.1617 42.3808 48.8524 42.6003 48.4997 42.7271C48.147 42.854 47.765 42.8831 47.3962 42.8113C47.0275 42.7396 46.6866 42.5697 46.4117 42.3207C46.1368 42.0718 45.9385 41.7525 45.8395 41.4007C45.6282 40.6591 45.506 39.8962 45.4749 39.1275L45.8358 33.5549C45.8411 33.4821 45.8472 33.4075 45.8534 33.3321C45.8671 33.1628 45.8812 32.9904 45.887 32.8296C45.8955 32.5931 45.8882 32.3497 45.8314 32.1194C45.7732 31.8841 45.6626 31.6601 45.4664 31.4695C45.2721 31.2807 45.0098 31.1415 44.6798 31.0467C44.0829 30.8791 43.5783 30.8844 43.1578 31.0575C42.737 31.2306 42.4488 31.552 42.2448 31.9232C42.0423 32.2913 41.9123 32.7271 41.8139 33.1637C41.7409 33.4876 41.6823 33.8276 41.6266 34.1513C41.6073 34.2628 41.5884 34.3723 41.5694 34.4787L41.5689 34.4818C41.2707 36.2568 41.1819 38.0591 41.3043 39.8536C41.3271 40.8234 41.5356 41.7806 41.9193 42.6764C42.3522 43.8323 43.1363 44.8338 44.1681 45.5487C45.202 46.265 46.4359 46.6597 47.7062 46.6806C48.9766 46.7014 50.2236 46.3474 51.282 45.6655C52.3386 44.9846 53.1575 44.0087 53.6304 42.8669C54.2918 41.4124 54.6024 39.8306 54.5383 38.242C54.4994 37.0823 54.4344 35.9136 54.3696 34.7509C54.3378 34.1805 54.3061 33.6114 54.2777 33.0457C54.2634 32.4785 54.0706 31.9291 53.725 31.4713C53.5111 31.1818 53.2265 30.9484 52.8966 30.792Z" fill="black"/>
<path d="M64.5952 39.5299C64.5617 39.5713 64.5264 39.614 64.4895 39.6585C64.2206 38.1542 63.9715 36.6505 63.7219 35.1444C63.6324 34.6041 63.5425 34.0614 63.452 33.5203L63.4418 33.46L63.4088 33.4078C63.3465 33.3097 63.3403 33.2134 63.3403 33.0082V32.9844L63.3365 32.9609C63.269 32.5371 63.0713 32.1426 62.7693 31.8292C62.4682 31.5166 62.0771 31.299 61.6468 31.2046C61.2173 31.1019 60.766 31.1245 60.3496 31.2698C59.9343 31.4147 59.5723 31.6751 59.3088 32.0184C59.0898 32.2818 58.9102 32.574 58.7757 32.8863C58.4703 33.5589 58.1622 34.2332 57.8533 34.9093L57.8479 34.921C57.0767 36.6089 56.3003 38.3082 55.5465 40.0208L55.5442 40.0263C55.0814 41.1368 54.6994 42.3069 54.3187 43.4734C54.2427 43.7062 54.1667 43.9389 54.0901 44.1711C53.9526 44.5392 53.8925 44.9302 53.9132 45.321C53.8882 45.671 53.9745 46.02 54.1608 46.321C54.3507 46.6282 54.6352 46.8698 54.9741 47.0121C55.3333 47.1648 55.7348 47.1972 56.1153 47.1042C56.4949 47.0114 56.8319 46.7989 57.0735 46.5002C57.3819 46.1322 57.6472 45.7308 57.8636 45.3056C58.5022 44.0387 59.1125 42.7563 59.72 41.4795C59.9551 40.9856 60.1835 40.5433 60.4434 40.0616C60.4612 40.121 60.4794 40.1789 60.4982 40.237C60.7706 41.4 61.2303 42.514 61.8604 43.5381C61.9797 43.755 62.1458 43.9446 62.3473 44.0938C62.5513 44.2449 62.7868 44.3509 63.0373 44.4047C63.2878 44.4586 63.5474 44.4588 63.7981 44.4055C64.0483 44.3522 64.2845 44.2461 64.4886 44.0958L64.8926 43.8025L68.0283 41.2408L67.8428 42.3869C67.5883 43.9623 67.3358 45.5246 67.0674 47.0873C66.8918 47.7799 66.8921 48.5033 67.0681 49.1957C67.1444 49.5854 67.3387 49.9441 67.6262 50.2262C67.9162 50.5106 68.2875 50.7038 68.6921 50.7809C69.0967 50.8578 69.5159 50.8152 69.8951 50.6583C70.2689 50.5037 70.5868 50.2452 70.809 49.9158C71.326 49.2936 71.6478 48.5404 71.7362 47.7458C71.8693 46.6236 72.0196 45.4862 72.1701 44.3491C72.3434 43.0384 72.5166 41.7281 72.6629 40.443L72.6634 40.439C72.8043 39.0322 72.8724 37.6196 72.8677 36.2062C72.8985 35.7596 72.7839 35.3146 72.5396 34.9344C72.2944 34.5528 71.9313 34.2561 71.5022 34.0864C71.0558 33.8895 70.5562 33.8369 70.0766 33.9364C69.6003 34.0352 69.1691 34.2787 68.8456 34.6315C68.2672 35.1503 67.7247 35.7055 67.2214 36.2934L67.218 36.2974C66.6685 36.9615 66.1228 37.6386 65.5806 38.3113C65.2509 38.7202 64.9222 39.1282 64.5952 39.5299Z" fill="black"/>
</g>
<defs>
<clipPath id="clip0_18_42">
<rect width="85" height="53" fill="white"/>
</clipPath>
</defs>
</svg>
