<svg width="55" height="54" viewBox="0 0 55 54" fill="none" xmlns="http://www.w3.org/2000/svg">
<g clip-path="url(#clip0_54_669)">
<rect x="0.460449" width="54" height="54" rx="27" fill="url(#paint0_linear_54_669)"/>
<path d="M36.3131 23.0558C49.1723 12.5214 37.0358 2.88582 23.9977 8.01767C22.6029 8.56672 18.738 6.36876 15.1577 8.68432C12.8482 10.178 13.747 11.3487 12.8478 12.5193C11.9485 13.6899 8.48153 13.621 7.72202 16.6607C7.2722 18.4615 8.51699 20.3479 8.3505 21.7033C8.184 23.0588 6.86957 24.2806 6.80688 26.0699C6.77974 26.8257 6.90175 27.5794 7.16594 28.288C7.43014 28.9966 7.83134 29.6463 8.34664 30.1998C8.86194 30.7533 9.48123 31.1999 10.1692 31.5141C10.8571 31.8282 11.6001 32.0038 12.3559 32.0307C12.3621 33.5248 12.9455 34.9587 13.9842 36.0327C15.0229 37.1068 16.4365 37.7378 17.9295 37.7939C18.922 37.8287 21.4348 37.829 23.5941 36.5265C29.0049 33.2634 27.7908 30.037 36.3131 23.0558Z" fill="white"/>
<path d="M22.9602 34.92C22.9602 33.3 22.9051 25.3094 22.9078 25.1744C18.4602 25.83 18.5502 17.37 23.0502 19.44C24.0402 20.07 26.8302 19.44 26.5602 14.22C31.4202 19.44 37.0626 13.3517 37.5465 18.3128C38.2072 25.0871 37.5425 32.1766 33.3325 32.1772C32.8719 32.1716 32.4127 32.1257 31.9602 32.04V34.92C31.9602 36.72 35.2002 37.62 35.2002 37.62C35.2002 37.62 29.6036 42.894 27.2802 42.8648C24.9567 42.8357 19.7202 37.62 19.7202 37.62C19.7202 37.62 22.9602 36.72 22.9602 34.92Z" fill="url(#paint1_linear_54_669)"/>
<path d="M31.9604 32.0391C29.7273 31.5439 27.6112 30.6209 25.729 29.3213C25.729 29.3213 27.2821 33.118 31.9546 33.8384L31.9604 32.0391Z" fill="#DB6F3D"/>
<path d="M44.0204 43.02C45.3263 45.922 46.0004 54.72 46.0004 54.72H8.92041C8.92041 54.72 9.59451 45.922 10.9004 43.02C12.0445 40.4779 19.5834 37.559 21.7927 36.72C23.0684 38.147 24.8965 39.06 27.4604 39.06C30.0243 39.06 31.8524 38.147 33.1281 36.72C35.3374 37.559 42.8763 40.4779 44.0204 43.02Z" fill="url(#paint2_linear_54_669)"/>
<mask id="mask0_54_669" style="mask-type:alpha" maskUnits="userSpaceOnUse" x="8" y="36" width="39" height="19">
<path d="M44.0204 43.02C45.3263 45.922 46.0004 54.72 46.0004 54.72H8.92041C8.92041 54.72 9.59451 45.922 10.9004 43.02C12.0445 40.4779 19.5834 37.559 21.7927 36.72C23.0684 38.147 24.8965 39.06 27.4604 39.06C30.0243 39.06 31.8524 38.147 33.1281 36.72C35.3374 37.559 42.8763 40.4779 44.0204 43.02Z" fill="url(#paint3_linear_54_669)"/>
</mask>
<g mask="url(#mask0_54_669)">
<path d="M44.3804 52.92C44.3804 52.7064 44.4437 52.4976 44.5624 52.32C44.6811 52.1424 44.8497 52.004 45.0471 51.9222C45.2444 51.8405 45.4616 51.8191 45.6711 51.8607C45.8806 51.9024 46.073 52.0053 46.2241 52.1563C46.3751 52.3074 46.478 52.4998 46.5196 52.7093C46.5613 52.9188 46.5399 53.136 46.4582 53.3333C46.3764 53.5306 46.238 53.6993 46.0604 53.818C45.8828 53.9367 45.674 54 45.4604 54C45.1739 54 44.8992 53.8862 44.6967 53.6837C44.4942 53.4811 44.3804 53.2064 44.3804 52.92ZM37.1804 52.92C37.1804 52.7064 37.2437 52.4976 37.3624 52.32C37.4811 52.1424 37.6497 52.004 37.8471 51.9222C38.0444 51.8405 38.2616 51.8191 38.4711 51.8607C38.6806 51.9024 38.873 52.0053 39.0241 52.1563C39.1751 52.3074 39.278 52.4998 39.3196 52.7093C39.3613 52.9188 39.3399 53.136 39.2582 53.3333C39.1764 53.5306 39.038 53.6993 38.8604 53.818C38.6828 53.9367 38.474 54 38.2604 54C37.9739 54 37.6992 53.8862 37.4967 53.6837C37.2942 53.4811 37.1804 53.2064 37.1804 52.92ZM29.9804 52.92C29.9804 52.7064 30.0437 52.4976 30.1624 52.32C30.2811 52.1424 30.4497 52.004 30.6471 51.9222C30.8444 51.8405 31.0616 51.8191 31.2711 51.8607C31.4806 51.9024 31.673 52.0053 31.8241 52.1563C31.9751 52.3074 32.0779 52.4998 32.1196 52.7093C32.1613 52.9188 32.1399 53.136 32.0582 53.3333C31.9764 53.5306 31.838 53.6993 31.6604 53.818C31.4828 53.9367 31.274 54 31.0604 54C30.7739 54 30.4992 53.8862 30.2967 53.6837C30.0942 53.4811 29.9804 53.2064 29.9804 52.92ZM22.7804 52.92C22.7804 52.7064 22.8437 52.4976 22.9624 52.32C23.0811 52.1424 23.2497 52.004 23.4471 51.9222C23.6444 51.8405 23.8616 51.8191 24.0711 51.8607C24.2806 51.9024 24.473 52.0053 24.624 52.1563C24.7751 52.3074 24.8779 52.4998 24.9196 52.7093C24.9613 52.9188 24.9399 53.136 24.8582 53.3333C24.7764 53.5306 24.638 53.6993 24.4604 53.818C24.2828 53.9367 24.074 54 23.8604 54C23.5739 54 23.2992 53.8862 23.0967 53.6837C22.8942 53.4811 22.7804 53.2064 22.7804 52.92ZM15.5804 52.92C15.5804 52.7064 15.6437 52.4976 15.7624 52.32C15.8811 52.1424 16.0497 52.004 16.2471 51.9222C16.4444 51.8405 16.6616 51.8191 16.8711 51.8607C17.0806 51.9024 17.273 52.0053 17.424 52.1563C17.5751 52.3074 17.6779 52.4998 17.7196 52.7093C17.7613 52.9188 17.7399 53.136 17.6582 53.3333C17.5764 53.5306 17.438 53.6993 17.2604 53.818C17.0828 53.9367 16.874 54 16.6604 54C16.3739 54 16.0992 53.8862 15.8967 53.6837C15.6942 53.4811 15.5804 53.2064 15.5804 52.92ZM8.38037 52.92C8.38037 52.7064 8.44371 52.4976 8.56238 52.32C8.68106 52.1424 8.84973 52.004 9.04707 51.9222C9.24442 51.8405 9.46157 51.8191 9.67107 51.8607C9.88057 51.9024 10.073 52.0053 10.224 52.1563C10.3751 52.3074 10.4779 52.4998 10.5196 52.7093C10.5613 52.9188 10.5399 53.136 10.4582 53.3333C10.3764 53.5306 10.238 53.6993 10.0604 53.818C9.88278 53.9367 9.67398 54 9.46037 54C9.17394 54 8.89924 53.8862 8.6967 53.6837C8.49416 53.4811 8.38037 53.2064 8.38037 52.92V52.92ZM40.7804 49.32C40.7804 49.1064 40.8437 48.8976 40.9624 48.72C41.0811 48.5424 41.2497 48.404 41.4471 48.3222C41.6444 48.2405 41.8616 48.2191 42.0711 48.2608C42.2806 48.3024 42.473 48.4053 42.6241 48.5563C42.7751 48.7074 42.8779 48.8998 42.9196 49.1093C42.9613 49.3188 42.9399 49.536 42.8582 49.7333C42.7764 49.9306 42.638 50.0993 42.4604 50.218C42.2828 50.3367 42.074 50.4 41.8604 50.4C41.5739 50.4 41.2992 50.2862 41.0967 50.0837C40.8942 49.8811 40.7804 49.6064 40.7804 49.32ZM33.5804 49.32C33.5804 49.1064 33.6437 48.8976 33.7624 48.72C33.8811 48.5424 34.0497 48.404 34.2471 48.3222C34.4444 48.2405 34.6616 48.2191 34.8711 48.2608C35.0806 48.3024 35.273 48.4053 35.4241 48.5563C35.5751 48.7074 35.6779 48.8998 35.7196 49.1093C35.7613 49.3188 35.7399 49.536 35.6582 49.7333C35.5764 49.9306 35.438 50.0993 35.2604 50.218C35.0828 50.3367 34.874 50.4 34.6604 50.4C34.3739 50.4 34.0992 50.2862 33.8967 50.0837C33.6942 49.8811 33.5804 49.6064 33.5804 49.32ZM26.3804 49.32C26.3804 49.1064 26.4437 48.8976 26.5624 48.72C26.6811 48.5424 26.8497 48.404 27.0471 48.3222C27.2444 48.2405 27.4616 48.2191 27.6711 48.2608C27.8806 48.3024 28.073 48.4053 28.224 48.5563C28.3751 48.7074 28.4779 48.8998 28.5196 49.1093C28.5613 49.3188 28.5399 49.536 28.4582 49.7333C28.3764 49.9306 28.238 50.0993 28.0604 50.218C27.8828 50.3367 27.674 50.4 27.4604 50.4C27.1739 50.4 26.8992 50.2862 26.6967 50.0837C26.4942 49.8811 26.3804 49.6064 26.3804 49.32ZM19.1804 49.32C19.1804 49.1064 19.2437 48.8976 19.3624 48.72C19.4811 48.5424 19.6497 48.404 19.8471 48.3222C20.0444 48.2405 20.2616 48.2191 20.4711 48.2608C20.6806 48.3024 20.873 48.4053 21.024 48.5563C21.1751 48.7074 21.2779 48.8998 21.3196 49.1093C21.3613 49.3188 21.3399 49.536 21.2582 49.7333C21.1764 49.9306 21.038 50.0993 20.8604 50.218C20.6828 50.3367 20.474 50.4 20.2604 50.4C19.9739 50.4 19.6992 50.2862 19.4967 50.0837C19.2942 49.8811 19.1804 49.6064 19.1804 49.32ZM11.9804 49.32C11.9804 49.1064 12.0437 48.8976 12.1624 48.72C12.2811 48.5424 12.4497 48.404 12.6471 48.3222C12.8444 48.2405 13.0616 48.2191 13.2711 48.2608C13.4806 48.3024 13.673 48.4053 13.824 48.5563C13.9751 48.7074 14.0779 48.8998 14.1196 49.1093C14.1613 49.3188 14.1399 49.536 14.0582 49.7333C13.9764 49.9306 13.838 50.0993 13.6604 50.218C13.4828 50.3367 13.274 50.4 13.0604 50.4C12.7739 50.4 12.4992 50.2862 12.2967 50.0837C12.0942 49.8811 11.9804 49.6064 11.9804 49.32ZM44.3804 45.72C44.3804 45.5064 44.4437 45.2976 44.5624 45.12C44.6811 44.9424 44.8497 44.804 45.0471 44.7222C45.2444 44.6405 45.4616 44.6191 45.6711 44.6608C45.8806 44.7024 46.073 44.8053 46.2241 44.9563C46.3751 45.1074 46.478 45.2998 46.5196 45.5093C46.5613 45.7188 46.5399 45.936 46.4582 46.1333C46.3764 46.3306 46.238 46.4993 46.0604 46.618C45.8828 46.7367 45.674 46.8 45.4604 46.8C45.1739 46.8 44.8992 46.6862 44.6967 46.4837C44.4942 46.2811 44.3804 46.0064 44.3804 45.72ZM37.1804 45.72C37.1804 45.5064 37.2437 45.2976 37.3624 45.12C37.4811 44.9424 37.6497 44.804 37.8471 44.7222C38.0444 44.6405 38.2616 44.6191 38.4711 44.6608C38.6806 44.7024 38.873 44.8053 39.0241 44.9563C39.1751 45.1074 39.278 45.2998 39.3196 45.5093C39.3613 45.7188 39.3399 45.936 39.2582 46.1333C39.1764 46.3306 39.038 46.4993 38.8604 46.618C38.6828 46.7367 38.474 46.8 38.2604 46.8C37.9739 46.8 37.6992 46.6862 37.4967 46.4837C37.2942 46.2811 37.1804 46.0064 37.1804 45.72ZM29.9804 45.72C29.9804 45.5064 30.0437 45.2976 30.1624 45.12C30.2811 44.9424 30.4497 44.804 30.6471 44.7222C30.8444 44.6405 31.0616 44.6191 31.2711 44.6608C31.4806 44.7024 31.673 44.8053 31.8241 44.9563C31.9751 45.1074 32.0779 45.2998 32.1196 45.5093C32.1613 45.7188 32.1399 45.936 32.0582 46.1333C31.9764 46.3306 31.838 46.4993 31.6604 46.618C31.4828 46.7367 31.274 46.8 31.0604 46.8C30.7739 46.8 30.4992 46.6862 30.2967 46.4837C30.0942 46.2811 29.9804 46.0064 29.9804 45.72ZM22.7804 45.72C22.7804 45.5064 22.8437 45.2976 22.9624 45.12C23.0811 44.9424 23.2497 44.804 23.4471 44.7222C23.6444 44.6405 23.8616 44.6191 24.0711 44.6608C24.2806 44.7024 24.473 44.8053 24.624 44.9563C24.7751 45.1074 24.8779 45.2998 24.9196 45.5093C24.9613 45.7188 24.9399 45.936 24.8582 46.1333C24.7764 46.3306 24.638 46.4993 24.4604 46.618C24.2828 46.7367 24.074 46.8 23.8604 46.8C23.5739 46.8 23.2992 46.6862 23.0967 46.4837C22.8942 46.2811 22.7804 46.0064 22.7804 45.72ZM15.5804 45.72C15.5804 45.5064 15.6437 45.2976 15.7624 45.12C15.8811 44.9424 16.0497 44.804 16.2471 44.7222C16.4444 44.6405 16.6616 44.6191 16.8711 44.6608C17.0806 44.7024 17.273 44.8053 17.424 44.9563C17.5751 45.1074 17.6779 45.2998 17.7196 45.5093C17.7613 45.7188 17.7399 45.936 17.6582 46.1333C17.5764 46.3306 17.438 46.4993 17.2604 46.618C17.0828 46.7367 16.874 46.8 16.6604 46.8C16.3739 46.8 16.0992 46.6862 15.8967 46.4837C15.6942 46.2811 15.5804 46.0064 15.5804 45.72ZM8.38037 45.72C8.38037 45.5064 8.44371 45.2976 8.56238 45.12C8.68106 44.9424 8.84973 44.804 9.04707 44.7222C9.24442 44.6405 9.46157 44.6191 9.67107 44.6608C9.88057 44.7024 10.073 44.8053 10.224 44.9563C10.3751 45.1074 10.4779 45.2998 10.5196 45.5093C10.5613 45.7188 10.5399 45.936 10.4582 46.1333C10.3764 46.3306 10.238 46.4993 10.0604 46.618C9.88278 46.7367 9.67398 46.8 9.46037 46.8C9.17394 46.8 8.89924 46.6862 8.6967 46.4837C8.49416 46.2811 8.38037 46.0064 8.38037 45.72V45.72ZM40.7804 42.12C40.7804 41.9064 40.8437 41.6976 40.9624 41.52C41.0811 41.3424 41.2497 41.204 41.4471 41.1222C41.6444 41.0405 41.8616 41.0191 42.0711 41.0608C42.2806 41.1024 42.473 41.2053 42.6241 41.3563C42.7751 41.5074 42.8779 41.6998 42.9196 41.9093C42.9613 42.1188 42.9399 42.336 42.8582 42.5333C42.7764 42.7306 42.638 42.8993 42.4604 43.018C42.2828 43.1367 42.074 43.2 41.8604 43.2C41.5739 43.2 41.2992 43.0862 41.0967 42.8837C40.8942 42.6811 40.7804 42.4064 40.7804 42.12ZM33.5804 42.12C33.5804 41.9064 33.6437 41.6976 33.7624 41.52C33.8811 41.3424 34.0497 41.204 34.2471 41.1222C34.4444 41.0405 34.6616 41.0191 34.8711 41.0608C35.0806 41.1024 35.273 41.2053 35.4241 41.3563C35.5751 41.5074 35.6779 41.6998 35.7196 41.9093C35.7613 42.1188 35.7399 42.336 35.6582 42.5333C35.5764 42.7306 35.438 42.8993 35.2604 43.018C35.0828 43.1367 34.874 43.2 34.6604 43.2C34.3739 43.2 34.0992 43.0862 33.8967 42.8837C33.6942 42.6811 33.5804 42.4064 33.5804 42.12ZM26.3804 42.12C26.3804 41.9064 26.4437 41.6976 26.5624 41.52C26.6811 41.3424 26.8497 41.204 27.0471 41.1222C27.2444 41.0405 27.4616 41.0191 27.6711 41.0608C27.8806 41.1024 28.073 41.2053 28.224 41.3563C28.3751 41.5074 28.4779 41.6998 28.5196 41.9093C28.5613 42.1188 28.5399 42.336 28.4582 42.5333C28.3764 42.7306 28.238 42.8993 28.0604 43.018C27.8828 43.1367 27.674 43.2 27.4604 43.2C27.1739 43.2 26.8992 43.0862 26.6967 42.8837C26.4942 42.6811 26.3804 42.4064 26.3804 42.12ZM19.1804 42.12C19.1804 41.9064 19.2437 41.6976 19.3624 41.52C19.4811 41.3424 19.6497 41.204 19.8471 41.1222C20.0444 41.0405 20.2616 41.0191 20.4711 41.0608C20.6806 41.1024 20.873 41.2053 21.024 41.3563C21.1751 41.5074 21.2779 41.6998 21.3196 41.9093C21.3613 42.1188 21.3399 42.336 21.2582 42.5333C21.1764 42.7306 21.038 42.8993 20.8604 43.018C20.6828 43.1367 20.474 43.2 20.2604 43.2C19.9739 43.2 19.6992 43.0862 19.4967 42.8837C19.2942 42.6811 19.1804 42.4064 19.1804 42.12ZM11.9804 42.12C11.9804 41.9064 12.0437 41.6976 12.1624 41.52C12.2811 41.3424 12.4497 41.204 12.6471 41.1222C12.8444 41.0405 13.0616 41.0191 13.2711 41.0608C13.4806 41.1024 13.673 41.2053 13.824 41.3563C13.9751 41.5074 14.0779 41.6998 14.1196 41.9093C14.1613 42.1188 14.1399 42.336 14.0582 42.5333C13.9764 42.7306 13.838 42.8993 13.6604 43.018C13.4828 43.1367 13.274 43.2 13.0604 43.2C12.7739 43.2 12.4992 43.0862 12.2967 42.8837C12.0942 42.6811 11.9804 42.4064 11.9804 42.12ZM44.3804 38.52C44.3804 38.3064 44.4437 38.0976 44.5624 37.92C44.6811 37.7424 44.8497 37.604 45.0471 37.5222C45.2444 37.4405 45.4616 37.4191 45.6711 37.4608C45.8806 37.5024 46.073 37.6053 46.2241 37.7563C46.3751 37.9074 46.478 38.0998 46.5196 38.3093C46.5613 38.5188 46.5399 38.736 46.4582 38.9333C46.3764 39.1306 46.238 39.2993 46.0604 39.418C45.8828 39.5367 45.674 39.6 45.4604 39.6C45.1739 39.6 44.8992 39.4862 44.6967 39.2837C44.4942 39.0811 44.3804 38.8064 44.3804 38.52ZM37.1804 38.52C37.1804 38.3064 37.2437 38.0976 37.3624 37.92C37.4811 37.7424 37.6497 37.604 37.8471 37.5222C38.0444 37.4405 38.2616 37.4191 38.4711 37.4608C38.6806 37.5024 38.873 37.6053 39.0241 37.7563C39.1751 37.9074 39.278 38.0998 39.3196 38.3093C39.3613 38.5188 39.3399 38.736 39.2582 38.9333C39.1764 39.1306 39.038 39.2993 38.8604 39.418C38.6828 39.5367 38.474 39.6 38.2604 39.6C37.9739 39.6 37.6992 39.4862 37.4967 39.2837C37.2942 39.0811 37.1804 38.8064 37.1804 38.52ZM15.5804 38.52C15.5804 38.3064 15.6437 38.0976 15.7624 37.92C15.8811 37.7424 16.0497 37.604 16.2471 37.5222C16.4444 37.4405 16.6616 37.4191 16.8711 37.4608C17.0806 37.5024 17.273 37.6053 17.424 37.7563C17.5751 37.9074 17.6779 38.0998 17.7196 38.3093C17.7613 38.5188 17.7399 38.736 17.6582 38.9333C17.5764 39.1306 17.438 39.2993 17.2604 39.418C17.0828 39.5367 16.874 39.6 16.6604 39.6C16.3739 39.6 16.0992 39.4862 15.8967 39.2837C15.6942 39.0811 15.5804 38.8064 15.5804 38.52ZM8.38037 38.52C8.38037 38.3064 8.44371 38.0976 8.56238 37.92C8.68106 37.7424 8.84973 37.604 9.04707 37.5222C9.24442 37.4405 9.46157 37.4191 9.67107 37.4608C9.88057 37.5024 10.073 37.6053 10.224 37.7563C10.3751 37.9074 10.4779 38.0998 10.5196 38.3093C10.5613 38.5188 10.5399 38.736 10.4582 38.9333C10.3764 39.1306 10.238 39.2993 10.0604 39.418C9.88278 39.5367 9.67398 39.6 9.46037 39.6C9.17394 39.6 8.89924 39.4862 8.6967 39.2837C8.49416 39.0811 8.38037 38.8064 8.38037 38.52V38.52Z" fill="#FFA789"/>
</g>
</g>
<defs>
<linearGradient id="paint0_linear_54_669" x1="27.4604" y1="0" x2="27.4604" y2="54" gradientUnits="userSpaceOnUse">
<stop stop-color="#1D0024"/>
<stop offset="1" stop-color="#100014"/>
</linearGradient>
<linearGradient id="paint1_linear_54_669" x1="28.6949" y1="14.22" x2="28.6949" y2="42.865" gradientUnits="userSpaceOnUse">
<stop stop-color="#E6864E"/>
<stop offset="1" stop-color="#EB965E"/>
</linearGradient>
<linearGradient id="paint2_linear_54_669" x1="27.4604" y1="36.72" x2="27.4604" y2="54.72" gradientUnits="userSpaceOnUse">
<stop stop-color="#FECBB5"/>
<stop offset="1" stop-color="#FED4C4"/>
</linearGradient>
<linearGradient id="paint3_linear_54_669" x1="27.4604" y1="36.72" x2="27.4604" y2="54.72" gradientUnits="userSpaceOnUse">
<stop stop-color="#FECBB5"/>
<stop offset="1" stop-color="#FED4C4"/>
</linearGradient>
<clipPath id="clip0_54_669">
<rect x="0.460449" width="54" height="54" rx="27" fill="white"/>
</clipPath>
</defs>
</svg>
