<svg width="1512" height="83" viewBox="0 0 1512 83" fill="none" xmlns="http://www.w3.org/2000/svg">
<path d="M635.251 44.848C636.126 44.848 636.906 45.0473 637.591 45.446C638.276 45.836 638.804 46.382 639.177 47.084C639.558 47.7773 639.749 48.5703 639.749 49.463C639.749 50.3557 639.558 51.153 639.177 51.855C638.804 52.5483 638.276 53.0943 637.591 53.493C636.906 53.883 636.126 54.078 635.251 54.078C634.367 54.078 633.583 53.883 632.898 53.493C632.213 53.0943 631.68 52.5483 631.299 51.855C630.918 51.153 630.727 50.3557 630.727 49.463C630.727 48.5703 630.918 47.7773 631.299 47.084C631.68 46.382 632.213 45.836 632.898 45.446C633.583 45.0473 634.367 44.848 635.251 44.848ZM635.251 45.368C634.445 45.368 633.743 45.5413 633.145 45.888C632.547 46.226 632.088 46.7027 631.767 47.318C631.446 47.9333 631.286 48.6483 631.286 49.463C631.286 50.269 631.446 50.984 631.767 51.608C632.088 52.2233 632.547 52.7043 633.145 53.051C633.743 53.3977 634.445 53.571 635.251 53.571C636.048 53.571 636.742 53.3977 637.331 53.051C637.929 52.7043 638.388 52.2233 638.709 51.608C639.03 50.984 639.19 50.269 639.19 49.463C639.19 48.6483 639.03 47.9333 638.709 47.318C638.388 46.7027 637.929 46.226 637.331 45.888C636.742 45.5413 636.048 45.368 635.251 45.368ZM635.225 46.447C634.705 46.447 634.228 46.5683 633.795 46.811C633.37 47.0537 633.032 47.4047 632.781 47.864C632.53 48.3147 632.404 48.8433 632.404 49.45C632.404 50.0567 632.53 50.5897 632.781 51.049C633.032 51.4997 633.37 51.8507 633.795 52.102C634.228 52.3447 634.705 52.466 635.225 52.466C635.875 52.466 636.438 52.2927 636.915 51.946C637.392 51.5907 637.717 51.1183 637.89 50.529H636.798C636.538 51.2483 636.014 51.608 635.225 51.608C634.705 51.608 634.28 51.4217 633.951 51.049C633.622 50.6763 633.457 50.1477 633.457 49.463C633.457 48.7697 633.622 48.2367 633.951 47.864C634.28 47.4913 634.705 47.305 635.225 47.305C635.606 47.305 635.936 47.4003 636.213 47.591C636.49 47.773 636.685 48.0373 636.798 48.384H637.89C637.725 47.7687 637.405 47.292 636.928 46.954C636.451 46.616 635.884 46.447 635.225 46.447ZM644.515 53.051C645.615 52.167 646.478 51.4433 647.102 50.88C647.726 50.308 648.25 49.7143 648.675 49.099C649.108 48.475 649.325 47.864 649.325 47.266C649.325 46.7027 649.186 46.2607 648.909 45.94C648.64 45.6107 648.202 45.446 647.596 45.446C647.006 45.446 646.547 45.6323 646.218 46.005C645.897 46.369 645.724 46.8587 645.698 47.474H644.554C644.588 46.5033 644.883 45.7537 645.438 45.225C645.992 44.6963 646.707 44.432 647.583 44.432C648.475 44.432 649.182 44.679 649.702 45.173C650.23 45.667 650.495 46.3473 650.495 47.214C650.495 47.9333 650.278 48.6353 649.845 49.32C649.42 49.996 648.935 50.594 648.389 51.114C647.843 51.6253 647.145 52.2233 646.296 52.908H650.768V53.896H644.515V53.051ZM652.135 49.203C652.135 47.7123 652.378 46.551 652.863 45.719C653.348 44.8783 654.198 44.458 655.411 44.458C656.616 44.458 657.461 44.8783 657.946 45.719C658.431 46.551 658.674 47.7123 658.674 49.203C658.674 50.7197 658.431 51.8983 657.946 52.739C657.461 53.5797 656.616 54 655.411 54C654.198 54 653.348 53.5797 652.863 52.739C652.378 51.8983 652.135 50.7197 652.135 49.203ZM657.504 49.203C657.504 48.449 657.452 47.812 657.348 47.292C657.253 46.7633 657.049 46.3387 656.737 46.018C656.434 45.6973 655.992 45.537 655.411 45.537C654.822 45.537 654.371 45.6973 654.059 46.018C653.756 46.3387 653.552 46.7633 653.448 47.292C653.353 47.812 653.305 48.449 653.305 49.203C653.305 49.983 653.353 50.6373 653.448 51.166C653.552 51.6947 653.756 52.1193 654.059 52.44C654.371 52.7607 654.822 52.921 655.411 52.921C655.992 52.921 656.434 52.7607 656.737 52.44C657.049 52.1193 657.253 51.6947 657.348 51.166C657.452 50.6373 657.504 49.983 657.504 49.203ZM660.155 53.051C661.256 52.167 662.118 51.4433 662.742 50.88C663.366 50.308 663.891 49.7143 664.315 49.099C664.749 48.475 664.965 47.864 664.965 47.266C664.965 46.7027 664.827 46.2607 664.549 45.94C664.281 45.6107 663.843 45.446 663.236 45.446C662.647 45.446 662.188 45.6323 661.858 46.005C661.538 46.369 661.364 46.8587 661.338 47.474H660.194C660.229 46.5033 660.524 45.7537 661.078 45.225C661.633 44.6963 662.348 44.432 663.223 44.432C664.116 44.432 664.822 44.679 665.342 45.173C665.871 45.667 666.135 46.3473 666.135 47.214C666.135 47.9333 665.919 48.6353 665.485 49.32C665.061 49.996 664.575 50.594 664.029 51.114C663.483 51.6253 662.786 52.2233 661.936 52.908H666.408V53.896H660.155V53.051ZM667.75 46.967C667.81 46.1697 668.118 45.5457 668.673 45.095C669.227 44.6443 669.947 44.419 670.831 44.419C671.42 44.419 671.927 44.5273 672.352 44.744C672.785 44.952 673.11 45.238 673.327 45.602C673.552 45.966 673.665 46.3777 673.665 46.837C673.665 47.3743 673.509 47.838 673.197 48.228C672.893 48.618 672.495 48.8693 672.001 48.982V49.047C672.564 49.1857 673.01 49.4587 673.34 49.866C673.669 50.2733 673.834 50.8063 673.834 51.465C673.834 51.959 673.721 52.4053 673.496 52.804C673.27 53.194 672.932 53.5017 672.482 53.727C672.031 53.9523 671.489 54.065 670.857 54.065C669.938 54.065 669.184 53.8267 668.595 53.35C668.005 52.8647 667.676 52.18 667.607 51.296H668.751C668.811 51.816 669.024 52.2407 669.388 52.57C669.752 52.8993 670.237 53.064 670.844 53.064C671.45 53.064 671.91 52.908 672.222 52.596C672.542 52.2753 672.703 51.8637 672.703 51.361C672.703 50.711 672.486 50.243 672.053 49.957C671.619 49.671 670.965 49.528 670.09 49.528H669.791V48.54H670.103C670.9 48.5313 671.502 48.4013 671.91 48.15C672.317 47.89 672.521 47.4913 672.521 46.954C672.521 46.4947 672.369 46.1263 672.066 45.849C671.771 45.5717 671.346 45.433 670.792 45.433C670.254 45.433 669.821 45.5717 669.492 45.849C669.162 46.1263 668.967 46.499 668.907 46.967H667.75ZM684.669 44.939V45.901H682.199V54H681.016V45.901H678.533V44.939H684.669ZM689.232 54.117C688.565 54.117 687.958 53.9653 687.412 53.662C686.875 53.3587 686.45 52.9297 686.138 52.375C685.835 51.8117 685.683 51.1617 685.683 50.425C685.683 49.697 685.839 49.0557 686.151 48.501C686.472 47.9377 686.905 47.5087 687.451 47.214C687.997 46.9107 688.608 46.759 689.284 46.759C689.96 46.759 690.571 46.9107 691.117 47.214C691.663 47.5087 692.092 47.9333 692.404 48.488C692.725 49.0427 692.885 49.6883 692.885 50.425C692.885 51.1617 692.72 51.8117 692.391 52.375C692.07 52.9297 691.633 53.3587 691.078 53.662C690.523 53.9653 689.908 54.117 689.232 54.117ZM689.232 53.077C689.657 53.077 690.055 52.9773 690.428 52.778C690.801 52.5787 691.1 52.2797 691.325 51.881C691.559 51.4823 691.676 50.997 691.676 50.425C691.676 49.853 691.563 49.3677 691.338 48.969C691.113 48.5703 690.818 48.2757 690.454 48.085C690.09 47.8857 689.696 47.786 689.271 47.786C688.838 47.786 688.439 47.8857 688.075 48.085C687.72 48.2757 687.434 48.5703 687.217 48.969C687 49.3677 686.892 49.853 686.892 50.425C686.892 51.0057 686.996 51.4953 687.204 51.894C687.421 52.2927 687.707 52.5917 688.062 52.791C688.417 52.9817 688.807 53.077 689.232 53.077ZM700.758 46.876V54H699.575V52.947C699.35 53.311 699.034 53.597 698.626 53.805C698.228 54.0043 697.786 54.104 697.3 54.104C696.746 54.104 696.247 53.9913 695.805 53.766C695.363 53.532 695.012 53.1853 694.752 52.726C694.501 52.2667 694.375 51.7077 694.375 51.049V46.876H695.545V50.893C695.545 51.595 695.723 52.1367 696.078 52.518C696.434 52.8907 696.919 53.077 697.534 53.077C698.167 53.077 698.665 52.882 699.029 52.492C699.393 52.102 699.575 51.5343 699.575 50.789V46.876H700.758ZM705.278 54.117C704.732 54.117 704.242 54.026 703.809 53.844C703.376 53.6533 703.033 53.3933 702.782 53.064C702.531 52.726 702.392 52.3403 702.366 51.907H703.588C703.623 52.2623 703.787 52.5527 704.082 52.778C704.385 53.0033 704.78 53.116 705.265 53.116C705.716 53.116 706.071 53.0163 706.331 52.817C706.591 52.6177 706.721 52.3663 706.721 52.063C706.721 51.751 706.582 51.5213 706.305 51.374C706.028 51.218 705.599 51.0663 705.018 50.919C704.489 50.7803 704.056 50.6417 703.718 50.503C703.389 50.3557 703.103 50.1433 702.86 49.866C702.626 49.58 702.509 49.2073 702.509 48.748C702.509 48.384 702.617 48.0503 702.834 47.747C703.051 47.4437 703.358 47.2053 703.757 47.032C704.156 46.85 704.611 46.759 705.122 46.759C705.911 46.759 706.548 46.9583 707.033 47.357C707.518 47.7557 707.778 48.3017 707.813 48.995H706.63C706.604 48.6223 706.452 48.3233 706.175 48.098C705.906 47.8727 705.542 47.76 705.083 47.76C704.658 47.76 704.32 47.851 704.069 48.033C703.818 48.215 703.692 48.4533 703.692 48.748C703.692 48.982 703.766 49.177 703.913 49.333C704.069 49.4803 704.26 49.6017 704.485 49.697C704.719 49.7837 705.04 49.8833 705.447 49.996C705.958 50.1347 706.374 50.2733 706.695 50.412C707.016 50.542 707.289 50.7413 707.514 51.01C707.748 51.2787 707.869 51.6297 707.878 52.063C707.878 52.453 707.77 52.804 707.553 53.116C707.336 53.428 707.029 53.675 706.63 53.857C706.24 54.0303 705.789 54.117 705.278 54.117ZM712.572 50.412C712.572 49.684 712.719 49.047 713.014 48.501C713.308 47.9463 713.711 47.5173 714.223 47.214C714.743 46.9107 715.323 46.759 715.965 46.759C716.519 46.759 717.035 46.889 717.512 47.149C717.988 47.4003 718.352 47.734 718.604 48.15V44.38H719.8V54H718.604V52.661C718.37 53.0857 718.023 53.4367 717.564 53.714C717.104 53.9827 716.567 54.117 715.952 54.117C715.319 54.117 714.743 53.961 714.223 53.649C713.711 53.337 713.308 52.8993 713.014 52.336C712.719 51.7727 712.572 51.1313 712.572 50.412ZM718.604 50.425C718.604 49.8877 718.495 49.4197 718.279 49.021C718.062 48.6223 717.767 48.319 717.395 48.111C717.031 47.8943 716.628 47.786 716.186 47.786C715.744 47.786 715.341 47.89 714.977 48.098C714.613 48.306 714.322 48.6093 714.106 49.008C713.889 49.4067 713.781 49.8747 713.781 50.412C713.781 50.958 713.889 51.4347 714.106 51.842C714.322 52.2407 714.613 52.5483 714.977 52.765C715.341 52.973 715.744 53.077 716.186 53.077C716.628 53.077 717.031 52.973 717.395 52.765C717.767 52.5483 718.062 52.2407 718.279 51.842C718.495 51.4347 718.604 50.9623 718.604 50.425ZM722.982 48.033C723.19 47.6257 723.485 47.3093 723.866 47.084C724.256 46.8587 724.728 46.746 725.283 46.746V47.968H724.971C723.645 47.968 722.982 48.6873 722.982 50.126V54H721.799V46.876H722.982V48.033ZM729.755 54.117C729.088 54.117 728.481 53.9653 727.935 53.662C727.398 53.3587 726.973 52.9297 726.661 52.375C726.358 51.8117 726.206 51.1617 726.206 50.425C726.206 49.697 726.362 49.0557 726.674 48.501C726.995 47.9377 727.428 47.5087 727.974 47.214C728.52 46.9107 729.131 46.759 729.807 46.759C730.483 46.759 731.094 46.9107 731.64 47.214C732.186 47.5087 732.615 47.9333 732.927 48.488C733.248 49.0427 733.408 49.6883 733.408 50.425C733.408 51.1617 733.244 51.8117 732.914 52.375C732.594 52.9297 732.156 53.3587 731.601 53.662C731.047 53.9653 730.431 54.117 729.755 54.117ZM729.755 53.077C730.18 53.077 730.579 52.9773 730.951 52.778C731.324 52.5787 731.623 52.2797 731.848 51.881C732.082 51.4823 732.199 50.997 732.199 50.425C732.199 49.853 732.087 49.3677 731.861 48.969C731.636 48.5703 731.341 48.2757 730.977 48.085C730.613 47.8857 730.219 47.786 729.794 47.786C729.361 47.786 728.962 47.8857 728.598 48.085C728.243 48.2757 727.957 48.5703 727.74 48.969C727.524 49.3677 727.415 49.853 727.415 50.425C727.415 51.0057 727.519 51.4953 727.727 51.894C727.944 52.2927 728.23 52.5917 728.585 52.791C728.941 52.9817 729.331 53.077 729.755 53.077ZM735.575 45.719C735.35 45.719 735.159 45.641 735.003 45.485C734.847 45.329 734.769 45.1383 734.769 44.913C734.769 44.6877 734.847 44.497 735.003 44.341C735.159 44.185 735.35 44.107 735.575 44.107C735.792 44.107 735.974 44.185 736.121 44.341C736.277 44.497 736.355 44.6877 736.355 44.913C736.355 45.1383 736.277 45.329 736.121 45.485C735.974 45.641 735.792 45.719 735.575 45.719ZM736.147 46.876V54H734.964V46.876H736.147ZM739.606 47.851V52.05C739.606 52.3967 739.68 52.6437 739.827 52.791C739.974 52.9297 740.23 52.999 740.594 52.999H741.465V54H740.399C739.74 54 739.246 53.8483 738.917 53.545C738.588 53.2417 738.423 52.7433 738.423 52.05V47.851H737.5V46.876H738.423V45.082H739.606V46.876H741.465V47.851H739.606ZM745.42 54.117C744.874 54.117 744.385 54.026 743.951 53.844C743.518 53.6533 743.176 53.3933 742.924 53.064C742.673 52.726 742.534 52.3403 742.508 51.907H743.73C743.765 52.2623 743.93 52.5527 744.224 52.778C744.528 53.0033 744.922 53.116 745.407 53.116C745.858 53.116 746.213 53.0163 746.473 52.817C746.733 52.6177 746.863 52.3663 746.863 52.063C746.863 51.751 746.725 51.5213 746.447 51.374C746.17 51.218 745.741 51.0663 745.16 50.919C744.632 50.7803 744.198 50.6417 743.86 50.503C743.531 50.3557 743.245 50.1433 743.002 49.866C742.768 49.58 742.651 49.2073 742.651 48.748C742.651 48.384 742.76 48.0503 742.976 47.747C743.193 47.4437 743.501 47.2053 743.899 47.032C744.298 46.85 744.753 46.759 745.264 46.759C746.053 46.759 746.69 46.9583 747.175 47.357C747.661 47.7557 747.921 48.3017 747.955 48.995H746.772C746.746 48.6223 746.595 48.3233 746.317 48.098C746.049 47.8727 745.685 47.76 745.225 47.76C744.801 47.76 744.463 47.851 744.211 48.033C743.96 48.215 743.834 48.4533 743.834 48.748C743.834 48.982 743.908 49.177 744.055 49.333C744.211 49.4803 744.402 49.6017 744.627 49.697C744.861 49.7837 745.182 49.8833 745.589 49.996C746.101 50.1347 746.517 50.2733 746.837 50.412C747.158 50.542 747.431 50.7413 747.656 51.01C747.89 51.2787 748.012 51.6297 748.02 52.063C748.02 52.453 747.912 52.804 747.695 53.116C747.479 53.428 747.171 53.675 746.772 53.857C746.382 54.0303 745.932 54.117 745.42 54.117ZM754.339 48.033C754.547 47.6257 754.842 47.3093 755.223 47.084C755.613 46.8587 756.086 46.746 756.64 46.746V47.968H756.328C755.002 47.968 754.339 48.6873 754.339 50.126V54H753.156V46.876H754.339V48.033ZM764.506 50.165C764.506 50.3903 764.493 50.6287 764.467 50.88H758.773C758.816 51.582 759.055 52.1323 759.488 52.531C759.93 52.921 760.463 53.116 761.087 53.116C761.598 53.116 762.023 52.999 762.361 52.765C762.708 52.5223 762.95 52.2017 763.089 51.803H764.363C764.172 52.4877 763.791 53.0467 763.219 53.48C762.647 53.9047 761.936 54.117 761.087 54.117C760.411 54.117 759.804 53.9653 759.267 53.662C758.738 53.3587 758.322 52.9297 758.019 52.375C757.716 51.8117 757.564 51.1617 757.564 50.425C757.564 49.6883 757.711 49.0427 758.006 48.488C758.301 47.9333 758.712 47.5087 759.241 47.214C759.778 46.9107 760.394 46.759 761.087 46.759C761.763 46.759 762.361 46.9063 762.881 47.201C763.401 47.4957 763.8 47.903 764.077 48.423C764.363 48.9343 764.506 49.515 764.506 50.165ZM763.284 49.918C763.284 49.4673 763.184 49.0817 762.985 48.761C762.786 48.4317 762.513 48.1847 762.166 48.02C761.828 47.8467 761.451 47.76 761.035 47.76C760.437 47.76 759.926 47.9507 759.501 48.332C759.085 48.7133 758.847 49.242 758.786 49.918H763.284ZM762.309 44.861L759.54 46.343V45.459L762.309 43.834V44.861ZM768.589 54.117C768.043 54.117 767.554 54.026 767.12 53.844C766.687 53.6533 766.345 53.3933 766.093 53.064C765.842 52.726 765.703 52.3403 765.677 51.907H766.899C766.934 52.2623 767.099 52.5527 767.393 52.778C767.697 53.0033 768.091 53.116 768.576 53.116C769.027 53.116 769.382 53.0163 769.642 52.817C769.902 52.6177 770.032 52.3663 770.032 52.063C770.032 51.751 769.894 51.5213 769.616 51.374C769.339 51.218 768.91 51.0663 768.329 50.919C767.801 50.7803 767.367 50.6417 767.029 50.503C766.7 50.3557 766.414 50.1433 766.171 49.866C765.937 49.58 765.82 49.2073 765.82 48.748C765.82 48.384 765.929 48.0503 766.145 47.747C766.362 47.4437 766.67 47.2053 767.068 47.032C767.467 46.85 767.922 46.759 768.433 46.759C769.222 46.759 769.859 46.9583 770.344 47.357C770.83 47.7557 771.09 48.3017 771.124 48.995H769.941C769.915 48.6223 769.764 48.3233 769.486 48.098C769.218 47.8727 768.854 47.76 768.394 47.76C767.97 47.76 767.632 47.851 767.38 48.033C767.129 48.215 767.003 48.4533 767.003 48.748C767.003 48.982 767.077 49.177 767.224 49.333C767.38 49.4803 767.571 49.6017 767.796 49.697C768.03 49.7837 768.351 49.8833 768.758 49.996C769.27 50.1347 769.686 50.2733 770.006 50.412C770.327 50.542 770.6 50.7413 770.825 51.01C771.059 51.2787 771.181 51.6297 771.189 52.063C771.189 52.453 771.081 52.804 770.864 53.116C770.648 53.428 770.34 53.675 769.941 53.857C769.551 54.0303 769.101 54.117 768.589 54.117ZM779.359 50.165C779.359 50.3903 779.346 50.6287 779.32 50.88H773.626C773.67 51.582 773.908 52.1323 774.341 52.531C774.783 52.921 775.316 53.116 775.94 53.116C776.452 53.116 776.876 52.999 777.214 52.765C777.561 52.5223 777.804 52.2017 777.942 51.803H779.216C779.026 52.4877 778.644 53.0467 778.072 53.48C777.5 53.9047 776.79 54.117 775.94 54.117C775.264 54.117 774.658 53.9653 774.12 53.662C773.592 53.3587 773.176 52.9297 772.872 52.375C772.569 51.8117 772.417 51.1617 772.417 50.425C772.417 49.6883 772.565 49.0427 772.859 48.488C773.154 47.9333 773.566 47.5087 774.094 47.214C774.632 46.9107 775.247 46.759 775.94 46.759C776.616 46.759 777.214 46.9063 777.734 47.201C778.254 47.4957 778.653 47.903 778.93 48.423C779.216 48.9343 779.359 49.515 779.359 50.165ZM778.137 49.918C778.137 49.4673 778.038 49.0817 777.838 48.761C777.639 48.4317 777.366 48.1847 777.019 48.02C776.681 47.8467 776.304 47.76 775.888 47.76C775.29 47.76 774.779 47.9507 774.354 48.332C773.938 48.7133 773.7 49.242 773.639 49.918H778.137ZM777.162 44.861L774.393 46.343V45.459L777.162 43.834V44.861ZM782.104 48.033C782.312 47.6257 782.607 47.3093 782.988 47.084C783.378 46.8587 783.85 46.746 784.405 46.746V47.968H784.093C782.767 47.968 782.104 48.6873 782.104 50.126V54H780.921V46.876H782.104V48.033ZM788.423 52.908L790.633 46.876H791.894L789.099 54H787.721L784.926 46.876H786.2L788.423 52.908ZM799.558 50.165C799.558 50.3903 799.545 50.6287 799.519 50.88H793.825C793.868 51.582 794.106 52.1323 794.54 52.531C794.982 52.921 795.515 53.116 796.139 53.116C796.65 53.116 797.075 52.999 797.413 52.765C797.759 52.5223 798.002 52.2017 798.141 51.803H799.415C799.224 52.4877 798.843 53.0467 798.271 53.48C797.699 53.9047 796.988 54.117 796.139 54.117C795.463 54.117 794.856 53.9653 794.319 53.662C793.79 53.3587 793.374 52.9297 793.071 52.375C792.767 51.8117 792.616 51.1617 792.616 50.425C792.616 49.6883 792.763 49.0427 793.058 48.488C793.352 47.9333 793.764 47.5087 794.293 47.214C794.83 46.9107 795.445 46.759 796.139 46.759C796.815 46.759 797.413 46.9063 797.933 47.201C798.453 47.4957 798.851 47.903 799.129 48.423C799.415 48.9343 799.558 49.515 799.558 50.165ZM798.336 49.918C798.336 49.4673 798.236 49.0817 798.037 48.761C797.837 48.4317 797.564 48.1847 797.218 48.02C796.88 47.8467 796.503 47.76 796.087 47.76C795.489 47.76 794.977 47.9507 794.553 48.332C794.137 48.7133 793.898 49.242 793.838 49.918H798.336ZM797.361 44.861L794.592 46.343V45.459L797.361 43.834V44.861ZM803.641 54.117C803.095 54.117 802.605 54.026 802.172 53.844C801.739 53.6533 801.396 53.3933 801.145 53.064C800.894 52.726 800.755 52.3403 800.729 51.907H801.951C801.986 52.2623 802.15 52.5527 802.445 52.778C802.748 53.0033 803.143 53.116 803.628 53.116C804.079 53.116 804.434 53.0163 804.694 52.817C804.954 52.6177 805.084 52.3663 805.084 52.063C805.084 51.751 804.945 51.5213 804.668 51.374C804.391 51.218 803.962 51.0663 803.381 50.919C802.852 50.7803 802.419 50.6417 802.081 50.503C801.752 50.3557 801.466 50.1433 801.223 49.866C800.989 49.58 800.872 49.2073 800.872 48.748C800.872 48.384 800.98 48.0503 801.197 47.747C801.414 47.4437 801.721 47.2053 802.12 47.032C802.519 46.85 802.974 46.759 803.485 46.759C804.274 46.759 804.911 46.9583 805.396 47.357C805.881 47.7557 806.141 48.3017 806.176 48.995H804.993C804.967 48.6223 804.815 48.3233 804.538 48.098C804.269 47.8727 803.905 47.76 803.446 47.76C803.021 47.76 802.683 47.851 802.432 48.033C802.181 48.215 802.055 48.4533 802.055 48.748C802.055 48.982 802.129 49.177 802.276 49.333C802.432 49.4803 802.623 49.6017 802.848 49.697C803.082 49.7837 803.403 49.8833 803.81 49.996C804.321 50.1347 804.737 50.2733 805.058 50.412C805.379 50.542 805.652 50.7413 805.877 51.01C806.111 51.2787 806.232 51.6297 806.241 52.063C806.241 52.453 806.133 52.804 805.916 53.116C805.699 53.428 805.392 53.675 804.993 53.857C804.603 54.0303 804.152 54.117 803.641 54.117Z" fill="black"/>
<path d="M-75 16.8842V82.8842H99V16.8842C85 17.3842 75 18.032 58 10.8603C22.5 -4.1158 0.5 -3.11585 -34 10.8603C-49.5929 17.1771 -68 16.7175 -75 16.8842Z" fill="black" fill-opacity="0.08"/>
<path d="M99 16.8842V82.8842H273V16.8842C259 17.3842 249 18.032 232 10.8603C196.5 -4.1158 174.5 -3.11585 140 10.8603C124.407 17.1771 106 16.7175 99 16.8842Z" fill="black" fill-opacity="0.08"/>
<path d="M273 16.8842V82.8842H447V16.8842C433 17.3842 423 18.032 406 10.8603C370.5 -4.1158 348.5 -3.11585 314 10.8603C298.407 17.1771 280 16.7175 273 16.8842Z" fill="black" fill-opacity="0.08"/>
<path d="M447 16.8842V82.8842H621V16.8842C607 17.3842 597 18.032 580 10.8603C544.5 -4.1158 522.5 -3.11585 488 10.8603C472.407 17.1771 454 16.7175 447 16.8842Z" fill="black" fill-opacity="0.08"/>
<path d="M621 16.8842V82.8842H795V16.8842C781 17.3842 771 18.032 754 10.8603C718.5 -4.1158 696.5 -3.11585 662 10.8603C646.407 17.1771 628 16.7175 621 16.8842Z" fill="black" fill-opacity="0.08"/>
<path d="M795 16.8842V82.8842H969V16.8842C955 17.3842 945 18.032 928 10.8603C892.5 -4.1158 870.5 -3.11585 836 10.8603C820.407 17.1771 802 16.7175 795 16.8842Z" fill="black" fill-opacity="0.08"/>
<path d="M969 16.8842V82.8842H1143V16.8842C1129 17.3842 1119 18.032 1102 10.8603C1066.5 -4.1158 1044.5 -3.11585 1010 10.8603C994.407 17.1771 976 16.7175 969 16.8842Z" fill="black" fill-opacity="0.08"/>
<path d="M1143 16.8842V82.8842H1317V16.8842C1303 17.3842 1293 18.032 1276 10.8603C1240.5 -4.1158 1218.5 -3.11585 1184 10.8603C1168.41 17.1771 1150 16.7175 1143 16.8842Z" fill="black" fill-opacity="0.08"/>
<path d="M1317 16.8842V82.8842H1491V16.8842C1477 17.3842 1467 18.032 1450 10.8603C1414.5 -4.1158 1392.5 -3.11585 1358 10.8603C1342.41 17.1771 1324 16.7175 1317 16.8842Z" fill="black" fill-opacity="0.08"/>
<path d="M1491 16.8842V82.8842H1665V16.8842C1651 17.3842 1641 18.032 1624 10.8603C1588.5 -4.1158 1566.5 -3.11585 1532 10.8603C1516.41 17.1771 1498 16.7175 1491 16.8842Z" fill="black" fill-opacity="0.08"/>
</svg>
