<svg width="85" height="53" viewBox="0 0 85 53" fill="none" xmlns="http://www.w3.org/2000/svg">
<g clip-path="url(#clip0_79_266)">
<path d="M79.5682 6.51475C79.5682 6.57654 79.5682 6.65379 79.5523 6.70014C79.4727 7.30266 79.4727 7.90519 79.5204 8.52317C79.5523 8.67766 79.5841 8.83216 79.7116 8.95576C79.9187 9.18749 80.2372 9.14115 80.3647 8.86306C80.4284 8.72401 80.4284 8.58496 80.3965 8.44592C80.2372 7.85884 80.2054 7.24087 80.1895 6.63833C80.1895 6.60744 80.1895 6.56109 80.1895 6.51475C80.3647 6.49929 80.524 6.48384 80.6673 6.48384C80.7789 6.4684 80.8744 6.45294 80.9541 6.40659C81.193 6.283 81.193 6.02036 80.9381 5.89677C80.8425 5.85042 80.7151 5.83496 80.6037 5.83496C80.2054 5.85042 79.8072 5.85041 79.4089 5.85041C79.2656 5.85041 79.1222 5.86587 78.9788 5.88131C78.8992 5.89677 78.8036 5.89677 78.74 5.94312C78.6284 5.98946 78.5648 6.0667 78.5648 6.17485C78.5807 6.283 78.6284 6.3448 78.74 6.39115C78.8036 6.4375 78.8833 6.45294 78.9629 6.45294C79.154 6.4684 79.3612 6.49929 79.5682 6.51475ZM83.9487 7.22542C83.9487 7.24087 83.9646 7.25631 83.9646 7.25631C84.0283 7.67345 84.0921 8.07514 84.1398 8.47682C84.1558 8.61586 84.1717 8.73946 84.2673 8.8476C84.4743 9.11024 84.793 9.07934 84.9362 8.80126C85 8.66221 85.0159 8.52317 84.9841 8.36867C84.8885 7.90519 84.8407 7.4417 84.7451 6.99367C84.6814 6.71558 84.6018 6.45294 84.5222 6.20576C84.4743 6.05126 84.3629 5.94311 84.1717 5.92766C83.9806 5.89677 83.8372 5.98946 83.7575 6.12851C83.662 6.2521 83.5823 6.37569 83.5186 6.51475C83.4071 6.76193 83.3115 7.00913 83.1841 7.24087C83.1681 7.30266 83.1522 7.34901 83.1204 7.39535C83.1045 7.36446 83.0886 7.34901 83.0886 7.34901C82.8814 6.96278 82.6903 6.57654 82.4833 6.20576C82.4513 6.17485 82.4354 6.14395 82.4195 6.11305C82.3239 5.97401 82.2125 5.89677 82.0372 5.89677C81.8779 5.91221 81.7504 6.00491 81.6709 6.14395C81.639 6.20576 81.639 6.25209 81.6231 6.3139C81.5593 6.80828 81.4796 7.30266 81.416 7.79705C81.3841 8.07514 81.3682 8.35322 81.3682 8.63131C81.3523 8.69311 81.3682 8.77035 81.4 8.83216C81.4319 8.95575 81.5275 9.033 81.6549 9.04845C81.8142 9.0639 81.9257 9.01755 81.9735 8.89395C82.0212 8.80126 82.0372 8.72402 82.0532 8.64677C82.1169 8.36867 82.1646 8.10603 82.2125 7.8434C82.2443 7.6889 82.2602 7.5653 82.308 7.39535C82.3398 7.45716 82.3717 7.50351 82.4036 7.54985C82.5469 7.73525 82.6903 7.92064 82.8655 8.07514C83.0407 8.19872 83.1841 8.18328 83.3274 8.04423C83.3594 8.01333 83.3753 7.99789 83.4071 7.96698C83.5505 7.75069 83.7257 7.53441 83.869 7.31811C83.9009 7.28721 83.9168 7.25631 83.9487 7.22542Z" fill="black"/>
<path d="M47.2463 6.8184C47.1355 7.11201 47.1144 7.32354 47.1655 7.49935C47.222 7.73843 47.3685 7.8167 47.5674 7.7559C49.4384 7.30717 53.5411 8.58085 55.0601 8.93584C55.4183 9.01038 55.7097 8.56187 55.4653 8.15974C55.1085 7.77031 51.0076 6.10302 49.4429 6.01211C48.8296 5.97849 47.7331 5.82595 47.2463 6.8184Z" fill="black"/>
<path d="M63.2805 1.42107C63.4798 1.5327 63.5913 1.63918 63.6463 1.75815C63.7283 1.91421 63.6851 2.02219 63.5474 2.07729C62.3106 2.66272 60.6649 5.18312 60.0006 6.05238C59.8395 6.25235 59.4681 6.13615 59.412 5.8073C59.4235 5.43549 60.8824 2.70029 61.6965 1.95531C62.0165 1.66445 62.5451 1.09375 63.2805 1.42107Z" fill="black"/>
<path d="M53.4313 0.180436C53.6709 0.00532274 53.9198 -0.0560422 54.047 0.0577594C55.913 1.60554 56.9025 4.05658 57.5152 6.30046C57.5383 6.35274 57.5397 6.42776 57.5213 6.50601C57.5136 6.5729 57.4633 6.64356 57.3832 6.69824C57.2977 6.7586 57.2242 6.77698 57.1896 6.72497C56.3717 5.64609 51.7007 1.44837 53.4313 0.180436Z" fill="black"/>
<path d="M13.9169 27.0151C14.3642 26.6921 14.8504 26.4233 15.3648 26.2146C15.9031 26.0654 16.4769 26.0901 16.9994 26.2852C17.5218 26.4804 17.9646 26.8351 18.2607 27.296C18.5255 27.7556 18.6291 28.2863 18.556 28.8082C18.4829 29.3298 18.237 29.8144 17.8552 30.1889C17.5593 30.4925 17.2233 30.7569 16.8562 30.9754C15.2201 32.0006 13.5694 32.9695 11.9188 33.9947C11.581 34.2513 11.2227 34.4814 10.8473 34.6828C10.2763 34.959 9.62366 35.033 9.00233 34.892C8.381 34.751 7.83003 34.4037 7.44469 33.9105C7.15662 33.5612 6.91351 33.1792 6.72072 32.7729C5.15696 29.5851 3.5353 26.4112 2.02945 23.1671C1.33444 21.7629 0.769751 20.1478 0.21954 18.589C-0.0185065 18.1361 -0.0649916 17.6111 0.089983 17.1254C0.244958 16.6397 0.589165 16.2319 1.04939 15.9885C1.50961 15.7452 2.04953 15.6857 2.55434 15.8226C3.05914 15.9594 3.489 16.2818 3.75247 16.7213C4.56234 17.7651 5.27924 18.8739 5.89541 20.0356C7.45916 22.8442 8.95054 25.6528 10.4564 28.3773C10.5441 28.5279 10.6407 28.6731 10.746 28.8126C11.8794 28.3504 12.9454 27.7461 13.9169 27.0151Z" fill="black"/>
<path d="M30.0853 26.0354C26.509 30.0939 20.5145 29.0687 17.5028 23.8446C15.3599 20.1371 14.9834 14.0142 19.6458 10.1522C20.6414 9.34371 21.8319 8.79293 23.1063 8.55127C24.6688 8.33401 26.2622 8.60137 27.6586 9.31516C29.0551 10.0289 30.1831 11.1526 30.8817 12.5256C33.43 17.0195 33.068 22.7492 30.0853 26.0354ZM28.6374 16.5701C28.2574 15.4658 27.4952 14.523 26.4799 13.9018C25.9055 13.5046 25.2074 13.3116 24.5033 13.355C23.7992 13.3985 23.132 13.6759 22.614 14.1405C20.5435 15.9241 20.1091 20.1512 21.6149 22.665C21.8069 23.0749 22.0887 23.4391 22.441 23.7323C22.7932 24.0255 23.2073 24.2405 23.6542 24.3622C24.101 24.4839 24.5699 24.5095 25.028 24.4371C25.4862 24.3646 25.9223 24.1959 26.3063 23.9429C27.4287 23.0988 28.2521 21.9367 28.662 20.618C29.0721 19.2991 29.0483 17.8892 28.594 16.5842L28.6374 16.5701Z" fill="black"/>
<path d="M44.6802 18.3394C44.3141 18.4158 43.9359 18.4204 43.5678 18.3528C43.1999 18.2852 42.8495 18.147 42.5374 17.9462C42.2643 17.7947 42.0292 17.5865 41.849 17.3363C41.6689 17.0861 41.5482 16.8004 41.4957 16.4995C41.443 16.1987 41.4598 15.8903 41.5447 15.5965C41.6297 15.3028 41.7809 15.0309 41.9872 14.8005C42.3466 14.3374 42.8569 14.0059 43.4351 13.8596C44.9448 13.4346 46.499 13.1755 48.0685 13.0872C48.4133 13.0483 48.7627 13.0766 49.096 13.1705C49.4294 13.2644 49.7401 13.4219 50.0099 13.6339C50.2796 13.8457 50.503 14.1078 50.6669 14.4046C50.8307 14.7014 50.9319 15.027 50.9643 15.3623C51.4167 17.0089 51.4663 18.7353 51.109 20.4039C49.806 25.7965 45.3174 27.6502 40.2786 25.9229C38.8642 25.461 37.624 24.6005 36.7167 23.4513C35.5066 22.0672 34.6485 20.427 34.2118 18.6625C33.8579 17.0911 33.8967 15.4607 34.3249 13.9069C34.7531 12.3532 35.5583 10.9213 36.6732 9.73083C37.7314 8.43694 39.1047 7.41866 40.6696 6.76766C41.6584 6.23904 42.8155 6.08874 43.9129 6.34636C44.1619 6.41319 44.3878 6.5434 44.5674 6.72349C44.747 6.90359 44.8737 7.127 44.9343 7.37057C44.9949 7.61413 44.9871 7.86898 44.9119 8.10868C44.8366 8.34837 44.6968 8.56419 44.5066 8.73374C44.145 9.0512 43.7522 9.33343 43.3337 9.57635C42.0465 10.3714 40.9263 11.396 40.0324 12.5957C39.4466 13.372 39.043 14.2635 38.8505 15.2072C38.6578 16.151 38.6807 17.1243 38.9176 18.0586C39.246 19.3326 39.9746 20.476 41.0025 21.3307C44.188 24.1394 48.3291 21.429 47.6051 17.5951C46.5482 17.848 45.6214 18.1148 44.6802 18.3394Z" fill="black"/>
<path d="M64.1406 26.26C59.4349 29.0688 54.0776 26.26 52.9047 20.3619C52.0505 16.1488 53.6721 10.2506 59.3481 8.00362C60.5557 7.53583 61.8655 7.37159 63.1561 7.52614C64.7066 7.80144 66.129 8.54178 67.2226 9.64282C68.3162 10.7438 69.0261 12.15 69.2518 13.6631C70.2074 18.6766 68.0356 24.0272 64.1406 26.26ZM65.7769 16.8088C65.7754 15.6422 65.3499 14.5133 64.5751 13.621C64.1609 13.0691 63.5621 12.6736 62.8809 12.502C62.1996 12.3304 61.4782 12.3933 60.8393 12.6801C58.291 13.7473 56.4956 17.6233 57.1472 20.4742C57.197 20.9216 57.3468 21.3531 57.5864 21.7384C57.826 22.1237 58.1495 22.4537 58.5343 22.7052C58.919 22.9566 59.3557 23.1235 59.8139 23.1942C60.2721 23.2648 60.7407 23.2376 61.1869 23.1144C62.5339 22.658 63.7002 21.805 64.523 20.6746C65.3459 19.5441 65.7843 18.1926 65.7769 16.8088Z" fill="black"/>
<path d="M74.0106 27.4397C73.9396 27.9537 73.661 28.4192 73.236 28.734C72.811 29.0486 72.2746 29.1868 71.7446 29.1179C71.2147 29.049 70.7347 28.7787 70.4103 28.3665C70.0857 27.9544 69.9434 27.434 70.0144 26.9201C70.0854 26.4061 70.3641 25.9405 70.789 25.6258C71.214 25.311 71.7505 25.173 72.2804 25.2419C72.8103 25.3108 73.2903 25.581 73.6149 25.9932C73.9393 26.4054 74.0818 26.9257 74.0106 27.4397ZM72.7509 8.49506C73.0263 8.08714 73.4303 7.7765 73.9027 7.60947C74.3749 7.44243 74.8902 7.42796 75.3717 7.5682C75.8612 7.68698 76.2936 7.96524 76.5968 8.35639C76.8999 8.74756 77.0552 9.22785 77.0369 9.71684C76.973 10.5012 76.852 11.2802 76.6749 12.048C76.1971 14.6461 75.7337 17.2441 75.227 19.8141C74.9953 20.8393 74.6912 21.8223 74.3581 22.8615C74.2423 23.1863 74.0487 23.4799 73.7935 23.7181C73.6348 23.8974 73.4321 24.0348 73.2041 24.1178C72.976 24.2009 72.7302 24.2268 72.4891 24.1932C72.2481 24.1596 72.0196 24.0676 71.8249 23.9257C71.6303 23.7837 71.4757 23.5964 71.3755 23.3811C71.2033 22.9949 71.1098 22.58 71.1003 22.1593C71.1003 20.4179 71.1003 18.6625 71.2162 16.907C71.413 14.4018 71.8001 11.9141 72.3745 9.46406C72.4421 9.13582 72.5695 8.82193 72.7509 8.5372V8.49506Z" fill="black"/>
<path fill-rule="evenodd" clip-rule="evenodd" d="M7.79946 38.7247C7.6285 39.0949 7.58162 39.5076 7.66516 39.9047C7.72074 40.4282 7.84281 40.9431 8.0286 41.4377C8.26055 42.0434 8.5201 42.6423 8.84014 43.3804C8.91374 43.5503 8.99065 43.7276 9.07113 43.9142C9.50272 44.9142 10.0442 46.1922 10.7666 48.0418C10.971 48.5672 11.1526 49.097 11.3354 49.6303C11.4092 49.8458 11.4833 50.062 11.5592 50.2787C11.8312 51.0492 12.2991 51.7413 12.9194 52.2898C13.1827 52.5913 13.5321 52.811 13.9238 52.9209C14.3232 53.0329 14.748 53.0258 15.1431 52.9005C15.5382 52.7752 15.8853 52.5374 16.1392 52.2181C16.3881 51.905 16.5361 51.5277 16.5649 51.1336C16.7264 50.3658 16.6713 49.5697 16.4051 48.8295C15.9826 47.6005 15.5014 46.3697 14.9465 45.1659L14.9439 45.1606C14.031 43.2772 13.1031 41.4068 12.1312 39.5356L12.1239 39.5225C11.8394 39.035 11.4697 38.5992 11.0313 38.2347C10.7468 37.9094 10.3542 37.6899 9.92072 37.6143C9.47798 37.5371 9.02136 37.6149 8.63238 37.834C8.2644 38.0378 7.9727 38.3496 7.79946 38.7247Z" fill="black"/>
<path fill-rule="evenodd" clip-rule="evenodd" d="M21.7426 34.0869C20.3112 33.7273 18.8163 33.6749 17.3621 33.9334C16.2357 34.041 15.1279 34.293 14.3587 34.7922C13.9674 35.0462 13.6511 35.3724 13.4751 35.787C13.2982 36.2039 13.2756 36.6806 13.4206 37.2119C13.6853 38.1849 14.0291 39.1309 14.3717 40.074L14.4271 40.2267L14.4285 40.2301C15.4599 42.9697 16.5011 45.7 17.5519 48.421C17.6744 48.8498 17.8477 49.2634 18.0682 49.6536L18.0723 49.6608C18.3636 50.1455 18.7373 50.5791 19.1774 50.9432C19.3976 51.1434 19.6698 51.2819 19.965 51.3438C20.2631 51.4062 20.5731 51.3881 20.8613 51.2913C21.1495 51.1946 21.4048 51.0229 21.5993 50.795C21.7907 50.5709 21.916 50.3008 21.962 50.0134C22.1519 49.2326 22.0911 48.4141 21.7875 47.6678C21.6928 47.4166 21.6185 47.1599 21.5402 46.8898C21.5141 46.7997 21.4876 46.708 21.4597 46.6147C23.8648 45.7028 26.4239 44.4767 27.3238 41.6243C27.6762 40.6387 27.7056 39.5713 27.4079 38.5686C27.1099 37.5649 26.4985 36.6752 25.658 36.0221C24.514 35.1079 23.1777 34.4473 21.7426 34.0869ZM17.7749 37.5855C17.8223 37.5723 17.87 37.56 17.9179 37.5485C19.4837 37.3098 21.0857 37.6279 22.4289 38.4441C23.0209 38.8434 23.2634 39.287 23.305 39.7139C23.348 40.1535 23.1832 40.6297 22.8522 41.0876C22.2267 41.9525 21.0853 42.6447 20.0543 42.7737C19.3026 41.0948 18.5393 39.348 17.7749 37.5855Z" fill="black"/>
<path d="M31.2856 31.0139C32.9902 30.2503 35.1017 30.1184 36.754 30.6553C37.1701 30.7728 37.5311 31.0271 37.7753 31.3746C38.0179 31.72 38.1299 32.1361 38.0925 32.5522C38.0901 32.8222 38.0217 33.088 37.8931 33.3277C37.7622 33.5717 37.5727 33.7815 37.3405 33.9396C37.1083 34.0975 36.8403 34.199 36.5592 34.2353C36.278 34.2717 35.992 34.2418 35.7252 34.1482L35.705 34.1411L35.6859 34.1313C35.5494 34.0621 35.4044 34.0099 35.2545 33.976L35.245 33.9739C34.0827 33.6745 32.9863 34.1706 32.5858 34.7802C32.3948 35.0709 32.3711 35.3643 32.5302 35.6312C32.7006 35.9171 33.1184 36.2379 33.9639 36.4665C34.1965 36.5284 34.4348 36.5881 34.6766 36.6488C35.3452 36.8168 36.04 36.9912 36.7119 37.2329L36.7144 37.2339C39.814 38.3777 40.9682 40.7467 40.573 42.9749C40.1822 45.1784 38.2848 47.1837 35.4316 47.6567C34.3934 47.8799 33.3129 47.8364 32.2972 47.5306C31.2789 47.2238 30.361 46.664 29.6348 45.9066L29.6158 45.8869C29.3866 45.6015 29.2323 45.2663 29.164 44.9106C29.1011 44.5896 29.1342 44.2578 29.2593 43.9544C29.3836 43.6528 29.594 43.3918 29.8653 43.2016C30.152 42.986 30.4976 42.8566 30.8594 42.8296C31.2199 42.8027 31.5806 42.8788 31.8972 43.0481C32.2134 43.1963 32.5075 43.3853 32.7715 43.61L32.7765 43.6141C33.2435 44.0284 33.8085 44.1363 34.3503 44.0363C34.9 43.9349 35.4169 43.6194 35.7494 43.2008C36.0797 42.7849 36.2123 42.2908 36.0549 41.8112C35.8966 41.328 35.4205 40.7867 34.3744 40.3342C34.1009 40.2215 33.8174 40.1307 33.5224 40.0423C33.4429 40.0184 33.362 39.9947 33.2802 39.9706C33.0621 39.9064 32.8377 39.8403 32.6176 39.7674C32.4661 39.7173 32.3158 39.6698 32.1669 39.6227C31.76 39.4942 31.3633 39.3689 30.9815 39.2009C30.1506 38.9265 29.4327 38.3997 28.9347 37.6982C28.4347 36.9941 28.1831 36.152 28.2173 35.2977C28.22 33.2159 29.5719 31.7816 31.2856 31.0139Z" fill="black"/>
<path d="M52.8966 30.7921C52.5661 30.6355 52.2006 30.5612 51.8331 30.5758C51.4656 30.5905 51.1076 30.6936 50.7915 30.8761C50.4774 31.0572 50.2144 31.3109 50.0259 31.6146C49.8531 31.8703 49.7335 32.1563 49.6739 32.4565C49.6143 32.7566 49.6157 33.065 49.678 33.3643C49.7396 33.749 49.8078 34.1232 49.8752 34.4921C49.9868 35.1027 50.0954 35.6995 50.167 36.3081L50.1697 36.3235C50.3327 37.2779 50.4181 38.2431 50.4258 39.2103L50.4265 39.224C50.4822 40.2686 50.1153 41.2929 49.4043 42.0794L49.393 42.0934C49.1617 42.3809 48.8524 42.6004 48.4997 42.7272C48.147 42.8541 47.765 42.8832 47.3962 42.8114C47.0275 42.7396 46.6866 42.5698 46.4117 42.3208C46.1368 42.0718 45.9385 41.7526 45.8395 41.4008C45.6282 40.6591 45.506 39.8963 45.4749 39.1276L45.8358 33.555C45.8411 33.4822 45.8472 33.4075 45.8534 33.3321C45.8671 33.1629 45.8812 32.9905 45.887 32.8297C45.8955 32.5931 45.8882 32.3498 45.8314 32.1195C45.7732 31.8841 45.6626 31.6602 45.4664 31.4695C45.2721 31.2808 45.0098 31.1415 44.6798 31.0467C44.0829 30.8792 43.5783 30.8845 43.1578 31.0576C42.737 31.2307 42.4488 31.5521 42.2448 31.9233C42.0423 32.2914 41.9123 32.7272 41.8139 33.1637C41.7409 33.4876 41.6823 33.8277 41.6266 34.1513C41.6073 34.2629 41.5884 34.3724 41.5694 34.4787L41.5689 34.4819C41.2707 36.2569 41.1819 38.0591 41.3043 39.8537C41.3271 40.8234 41.5356 41.7807 41.9193 42.6765C42.3522 43.8324 43.1363 44.8339 44.1681 45.5487C45.202 46.2651 46.4359 46.6598 47.7062 46.6807C48.9766 46.7015 50.2236 46.3475 51.282 45.6656C52.3386 44.9847 53.1575 44.0087 53.6304 42.867C54.2918 41.4125 54.6024 39.8307 54.5383 38.2421C54.4994 37.0824 54.4344 35.9137 54.3696 34.751C54.3378 34.1806 54.3061 33.6115 54.2777 33.0458C54.2634 32.4786 54.0706 31.9292 53.725 31.4713C53.5111 31.1819 53.2265 30.9485 52.8966 30.7921Z" fill="black"/>
<path d="M64.5952 39.53C64.5617 39.5713 64.5264 39.6141 64.4895 39.6586C64.2206 38.1543 63.9715 36.6506 63.7219 35.1445C63.6324 34.6042 63.5425 34.0615 63.452 33.5204L63.4418 33.4601L63.4088 33.4079C63.3465 33.3098 63.3403 33.2135 63.3403 33.0083V32.9845L63.3365 32.961C63.269 32.5372 63.0713 32.1427 62.7693 31.8292C62.4682 31.5167 62.0771 31.2991 61.6468 31.2047C61.2173 31.1019 60.766 31.1246 60.3496 31.2699C59.9343 31.4148 59.5723 31.6752 59.3088 32.0185C59.0898 32.2819 58.9102 32.5741 58.7757 32.8864C58.4703 33.559 58.1622 34.2333 57.8533 34.9094L57.8479 34.9211C57.0767 36.609 56.3003 38.3083 55.5465 40.0209L55.5442 40.0264C55.0814 41.1369 54.6994 42.307 54.3187 43.4735C54.2427 43.7063 54.1667 43.939 54.0901 44.1711C53.9526 44.5393 53.8925 44.9302 53.9132 45.3211C53.8882 45.671 53.9745 46.0201 54.1608 46.3211C54.3507 46.6283 54.6352 46.8699 54.9741 47.0122C55.3333 47.1649 55.7348 47.1973 56.1153 47.1043C56.4949 47.0115 56.8319 46.799 57.0735 46.5003C57.3819 46.1323 57.6472 45.7309 57.8636 45.3057C58.5022 44.0388 59.1125 42.7564 59.72 41.4796C59.9551 40.9857 60.1835 40.5434 60.4434 40.0617C60.4612 40.1211 60.4794 40.179 60.4982 40.2371C60.7706 41.4001 61.2303 42.514 61.8604 43.5382C61.9797 43.7551 62.1458 43.9447 62.3473 44.0939C62.5513 44.245 62.7868 44.351 63.0373 44.4048C63.2878 44.4587 63.5474 44.4589 63.7981 44.4055C64.0483 44.3523 64.2845 44.2462 64.4886 44.0959L64.8926 43.8026L68.0283 41.2408L67.8428 42.387C67.5883 43.9624 67.3358 45.5247 67.0674 47.0873C66.8918 47.78 66.8921 48.5034 67.0681 49.1958C67.1444 49.5855 67.3387 49.9442 67.6262 50.2263C67.9162 50.5107 68.2875 50.7039 68.6921 50.781C69.0967 50.8579 69.5159 50.8153 69.8951 50.6583C70.2689 50.5038 70.5868 50.2453 70.809 49.9159C71.326 49.2937 71.6478 48.5405 71.7362 47.7459C71.8693 46.6237 72.0196 45.4863 72.1701 44.3492C72.3434 43.0385 72.5166 41.7282 72.6629 40.4431L72.6634 40.4391C72.8043 39.0323 72.8724 37.6197 72.8677 36.2063C72.8985 35.7597 72.7839 35.3147 72.5396 34.9344C72.2944 34.5528 71.9313 34.2562 71.5022 34.0864C71.0558 33.8896 70.5562 33.837 70.0766 33.9365C69.6003 34.0353 69.1691 34.2788 68.8456 34.6316C68.2672 35.1504 67.7247 35.7056 67.2214 36.2935L67.218 36.2975C66.6685 36.9616 66.1228 37.6387 65.5806 38.3114C65.2509 38.7203 64.9222 39.1283 64.5952 39.53Z" fill="black"/>
</g>
<defs>
<clipPath id="clip0_79_266">
<rect width="85" height="53" fill="white"/>
</clipPath>
</defs>
</svg>
