<svg width="261" height="270" viewBox="0 0 261 270" fill="none" xmlns="http://www.w3.org/2000/svg">
<path d="M103.685 0.381626C110.24 3.95697 110.24 3.95697 112.028 7.53231C112.642 7.21276 113.257 6.89322 113.89 6.56399C115.328 5.86345 115.328 5.86345 116.795 5.14875C118.097 4.48508 119.4 3.8214 120.742 3.13762C125.789 1.3413 128.368 1.22219 133.48 2.76519C137.121 6.30805 138.992 9.90577 140.63 14.683C141.81 14.2897 142.99 13.8964 144.206 13.4912C152.37 12.6205 157.861 13.2713 164.466 18.2583C167.424 22.4293 168.575 25.8052 169.233 30.8465C169.97 35.9462 170.979 40.7809 172.361 45.7438C174.663 54.6018 174.788 62.9618 172.808 71.8885C173.951 72.2203 173.951 72.2203 175.117 72.5588C177.575 74.272 177.575 74.272 178.693 78.1453C178.777 83.2285 177.97 85.5505 175.192 89.7652C172.512 92.3554 171.071 93.246 167.371 93.7874C164.156 94.2628 164.156 94.2628 162.497 97.5583C161.967 98.5262 161.437 99.494 160.891 100.491C161.798 100.575 162.705 100.658 163.64 100.744C167.766 101.135 171.888 101.558 176.011 101.981C177.439 102.112 178.867 102.242 180.338 102.377C181.717 102.523 183.096 102.669 184.517 102.819C185.784 102.944 187.051 103.069 188.356 103.197C192.542 104.231 194.726 105.891 197.836 108.834C200.407 113.976 199.301 120.839 199.325 126.487C199.362 128.613 199.362 128.613 199.4 130.782C199.409 132.834 199.409 132.834 199.419 134.927C199.435 136.805 199.435 136.805 199.452 138.72C198.965 142.716 197.82 144.937 195.452 148.162C192.354 149.898 189.34 150.672 185.918 151.738C186.636 152.805 186.636 152.805 187.37 153.894C192.107 161.287 194.638 167.877 196.272 176.467C196.51 177.633 196.748 178.8 196.994 180.001C199.437 192.342 201.123 204.796 202.603 217.286C201.423 217.679 200.243 218.072 199.028 218.478C199.566 221.732 200.113 224.984 200.666 228.235C200.817 229.152 200.967 230.068 201.122 231.012C201.961 235.897 203.141 240.087 204.986 244.697C205.631 250.523 205.702 255.96 203.571 261.456C200.907 264.304 199.267 265.282 195.452 266.149C188.465 266.149 185.548 263.916 180.727 259.357C178.719 257.494 178.719 257.494 175.266 257.359C174.05 257.581 174.05 257.581 172.808 257.806C172.808 258.986 172.808 260.166 172.808 261.382C169.198 263.482 166.827 263.986 162.678 263.765C158.09 263.641 153.971 264.058 149.471 264.934C142.034 266.225 134.834 266.56 127.297 266.521C126.013 266.519 124.728 266.516 123.405 266.514C99.0428 266.211 99.0428 266.211 89.3837 261.382C88.9904 264.135 88.5971 266.888 88.1919 269.724C82.7716 269.937 78.8013 269.722 73.8905 267.341C74.5135 264.048 75.2118 260.993 76.2741 257.806C74.3077 257.02 72.3412 256.233 70.3152 255.423C69.7406 255.925 69.166 256.427 68.5741 256.945C67.8213 257.598 67.0685 258.251 66.2929 258.924C65.5463 259.573 64.7997 260.223 64.0304 260.893C59.9693 264.21 56.5694 264.18 51.4748 264.082C48.8631 263.765 48.8631 263.765 45.9582 262.052C40.6612 253.365 41.7154 244.368 43.2767 234.716C43.448 233.543 43.6192 232.371 43.7957 231.163C44.4515 226.786 45.0774 222.684 46.4796 218.478C45.2997 218.084 44.1198 217.691 42.9042 217.286C44.5848 203.404 46.5575 189.599 49.2356 175.871C49.4456 174.711 49.6555 173.55 49.8719 172.354C51.5753 163.987 54.8002 157.592 59.5892 150.546C58.6499 150.004 57.7107 149.463 56.743 148.905C52.8875 146.509 51.7478 145.25 50.0549 141.012C49.5441 136.434 49.5563 131.908 49.608 127.306C49.5942 126.076 49.5803 124.845 49.5661 123.577C49.596 115.84 50.1244 111.287 55.6228 105.57C59.6385 103.394 63.7577 103.082 68.2296 102.651C69.1175 102.554 70.0055 102.456 70.9204 102.356C73.1008 102.118 75.2832 101.899 77.4659 101.683C77.4659 97.9815 76.1412 96.2446 73.8905 93.3405C71.1135 92.5327 68.3325 91.7386 65.5481 90.957C62.6431 88.5734 62.6431 88.5734 60.7809 84.9981C60.4066 80.9912 60.5006 77.0908 60.7809 73.0803C62.7474 72.2937 64.7138 71.5071 66.7398 70.6967C66.726 69.3033 66.7122 67.9099 66.6979 66.4743C66.6868 64.6292 66.6759 62.7841 66.6654 60.939C66.6554 60.0226 66.6454 59.1062 66.6351 58.162C66.6148 53.4334 66.7565 49.0948 67.9316 44.4775C67.0713 44.2317 66.211 43.9859 65.3246 43.7327C60.3694 41.3101 57.308 37.5316 54.822 32.5597C54.1056 27.0916 53.5742 21.7208 56.2931 16.7733C59.7659 12.6387 62.3437 10.2388 67.9502 9.67379C74.4711 9.53699 78.8037 10.5229 84.6166 13.4912C84.6903 12.6309 84.764 11.7706 84.84 10.8842C86.1106 6.48594 88.3682 4.55795 91.7672 1.57341C95.5938 -0.339888 99.5342 -0.195951 103.685 0.381626Z" fill="#01B6D8"/>
<path d="M103.685 0.381626C110.24 3.95697 110.24 3.95697 112.027 7.53231C112.642 7.21276 113.256 6.89322 113.89 6.56399C115.327 5.86345 115.327 5.86345 116.795 5.14875C118.097 4.48508 119.4 3.8214 120.742 3.13762C125.789 1.3413 128.368 1.22219 133.479 2.76519C137.121 6.30805 138.992 9.90577 140.63 14.683C141.81 14.2897 142.99 13.8964 144.205 13.4912C152.37 12.6205 157.861 13.2713 164.466 18.2583C167.424 22.4293 168.574 25.8052 169.233 30.8465C169.97 35.9462 170.978 40.7809 172.361 45.7438C174.663 54.6018 174.788 62.9618 172.808 71.8885C173.951 72.2203 173.951 72.2203 175.117 72.5588C177.575 74.272 177.575 74.272 178.693 78.1453C178.777 83.2285 177.97 85.5505 175.192 89.7652C172.551 92.3179 171.189 93.2622 167.52 93.6385C163.506 94.8132 162.59 97.0639 160.378 100.445C154.521 108.05 145.83 113.545 137.055 117.176C135.482 117.176 133.908 117.176 132.288 117.176C132.561 119.092 132.865 121.003 133.181 122.912C133.43 124.509 133.43 124.509 133.684 126.138C134.872 129.697 136.29 130.743 139.438 132.669C137.539 139.846 132.094 143.768 125.956 147.418C117.759 149.324 111.605 149.082 104.206 144.811C99.1109 141.591 99.1109 141.591 97.726 137.436C99.164 136.035 99.164 136.035 100.631 134.606C104.599 130.541 105.053 128.497 105.547 122.986C105.647 121.901 105.747 120.817 105.85 119.699C105.958 118.45 105.958 118.45 106.068 117.176C105.061 117.078 104.053 116.979 103.015 116.878C98.9178 115.984 98.9178 115.984 90.5753 111.217C90.182 120.656 89.7888 130.095 89.3835 139.82C88.597 139.82 87.8104 139.82 87 139.82C87 140.607 87 141.393 87 142.204C84.8615 142.683 84.8615 142.683 82.6798 143.172C78.2064 144.278 74.3661 145.934 70.3151 148.162C71.1016 146.196 71.8882 144.23 72.6986 142.204C73.8785 142.204 75.0583 142.204 76.274 142.204C76.2615 141.025 76.249 139.846 76.2361 138.631C76.1931 134.265 76.1656 129.898 76.143 125.531C76.131 123.64 76.1148 121.749 76.0941 119.858C76.0653 117.142 76.0517 114.427 76.0412 111.711C76.0289 110.863 76.0166 110.015 76.0039 109.141C76.0034 107.05 76.1285 104.96 76.274 102.875C77.4538 101.695 77.4538 101.695 78.6575 100.491C75.5307 94.7257 75.5307 94.7257 69.7192 92.0743C67.6544 91.5212 67.6544 91.5212 65.5479 90.957C62.643 88.5734 62.643 88.5734 60.7808 84.9981C60.4065 80.9912 60.5005 77.0908 60.7808 73.0803C62.7472 72.2937 64.7137 71.5071 66.7397 70.6967C66.719 68.6066 66.719 68.6066 66.6978 66.4743C66.6866 64.6292 66.6758 62.7841 66.6652 60.939C66.6502 59.5644 66.6502 59.5644 66.635 58.162C66.6147 53.4334 66.7563 49.0948 67.9315 44.4775C67.0712 44.2317 66.2109 43.9859 65.3245 43.7327C60.3693 41.3101 57.3078 37.5316 54.8219 32.5597C54.1055 27.0916 53.574 21.7208 56.293 16.7733C59.7657 12.6387 62.3435 10.2388 67.9501 9.67379C74.4709 9.53699 78.8035 10.5229 84.6164 13.4912C84.6902 12.6309 84.7639 11.7706 84.8399 10.8842C86.1105 6.48594 88.368 4.55795 91.7671 1.57341C95.5937 -0.339888 99.5341 -0.195951 103.685 0.381626Z" fill="#FCC6B4"/>
<path d="M160.89 101.683C176.096 101.683 176.096 101.683 183.385 102.577C184.857 102.743 186.329 102.909 187.845 103.08C192.32 104.175 194.549 105.656 197.836 108.834C200.407 113.976 199.301 120.839 199.325 126.487C199.35 127.904 199.374 129.321 199.4 130.782C199.409 132.834 199.409 132.834 199.418 134.927C199.435 136.805 199.435 136.805 199.452 138.72C198.965 142.716 197.819 144.937 195.452 148.162C192.354 149.898 189.34 150.672 185.918 151.738C186.397 152.449 186.876 153.161 187.369 153.894C192.107 161.287 194.637 167.877 196.271 176.467C196.51 177.633 196.748 178.799 196.994 180.001C199.437 192.342 201.123 204.796 202.603 217.286C201.423 217.679 200.243 218.072 199.027 218.478C199.566 221.732 200.113 224.984 200.666 228.235C200.892 229.61 200.892 229.61 201.122 231.012C201.961 235.897 203.141 240.087 204.986 244.697C205.631 250.523 205.702 255.96 203.571 261.456C200.907 264.304 199.267 265.282 195.452 266.149C188.465 266.149 185.548 263.916 180.727 259.357C178.719 257.494 178.719 257.494 175.266 257.359C174.455 257.507 173.644 257.654 172.808 257.806C172.808 258.986 172.808 260.166 172.808 261.382C168.16 264.48 163.9 263.945 158.507 263.765C156.152 249.135 156.152 249.135 155.867 241.81C155.833 240.95 155.798 240.09 155.762 239.203C155.706 237.522 155.669 235.839 155.653 234.157C155.616 231.567 155.616 231.567 154.931 228.012C152.651 226.179 152.651 226.179 150.164 225.628C149.731 219.128 149.731 219.128 151.654 216.243C153.74 214.902 153.74 214.902 158.507 214.902C156.848 206.313 154.448 201.946 147.641 196.495C144.224 193.673 142.945 191.821 141.822 187.491C142.261 181.009 143.265 174.722 145.388 168.572C147.129 163.172 147.864 157.67 148.696 152.068C149.611 146.417 150.71 140.467 154.931 136.245C156.898 136.245 158.864 136.245 160.89 136.245C160.89 124.839 160.89 113.434 160.89 101.683Z" fill="#FBC7B6"/>
<path d="M103.685 0.381626C110.24 3.95697 110.24 3.95697 112.027 7.53231C112.642 7.21276 113.256 6.89322 113.89 6.56399C115.327 5.86345 115.327 5.86345 116.795 5.14875C118.097 4.48508 119.4 3.8214 120.742 3.13762C125.789 1.3413 128.368 1.22219 133.479 2.76519C137.121 6.30805 138.992 9.90577 140.63 14.683C141.81 14.2897 142.99 13.8964 144.205 13.4912C152.37 12.6205 157.861 13.2713 164.466 18.2583C167.424 22.4293 168.574 25.8052 169.233 30.8465C169.97 35.9462 170.978 40.7809 172.361 45.7438C175.272 57.1499 174.855 68.024 170.425 79.0392C169.245 79.6291 169.245 79.6291 168.041 80.2309C167.883 78.879 167.725 77.5271 167.562 76.1342C167.349 74.3217 167.136 72.5092 166.924 70.6967C166.82 69.8103 166.716 68.9238 166.61 68.0105C165.921 62.149 165.204 56.2918 164.466 50.4364C163.403 50.4917 162.34 50.547 161.244 50.604C159.849 50.647 158.454 50.69 157.017 50.7344C155.634 50.7897 154.252 50.845 152.827 50.902C148.973 50.4364 148.973 50.4364 146.086 48.3322C144.205 45.6693 144.205 45.6693 144.205 40.9022C143.453 41.1603 142.7 41.4184 141.924 41.6843C132.935 44.4821 123.796 45.949 114.411 44.4775C111.179 42.3212 109.004 40.814 107.26 37.3268C106.514 37.8292 105.767 38.3316 104.998 38.8491C104.024 39.5021 103.05 40.155 102.046 40.8277C101.078 41.4775 100.111 42.1274 99.1133 42.7969C94.8782 45.5566 92.4985 45.8025 87.4469 45.7438C86.2517 45.733 85.0565 45.7223 83.825 45.7112C82.9063 45.6974 81.9876 45.6835 81.0411 45.6693C81.0411 45.276 81.0411 44.8827 81.0411 44.4775C86.9404 43.2976 92.8397 42.1178 98.9178 40.9022C98.9178 40.1156 98.9178 39.329 98.9178 38.5186C97.7625 39.1085 96.6072 39.6985 95.4169 40.3063C87.169 43.4947 77.8086 42.3604 69.1233 42.094C72.2696 42.8805 75.4159 43.6671 78.6575 44.4775C78.2412 45.7465 77.8249 47.0154 77.3959 48.3229C73.8495 59.503 71.7125 69.6247 71.5068 81.4227C67.2396 77.1555 66.6204 71.4873 66.465 65.6596C66.4697 63.9122 66.4869 62.1647 66.5163 60.4176C66.517 59.5388 66.5178 58.6601 66.5186 57.7547C66.5554 53.1895 66.8353 48.9148 67.9315 44.4775C67.0712 44.2317 66.2109 43.9859 65.3245 43.7327C60.3693 41.3101 57.3078 37.5316 54.8219 32.5597C54.1055 27.0916 53.574 21.7208 56.293 16.7733C59.7657 12.6387 62.3435 10.2388 67.9501 9.67379C74.4709 9.53699 78.8035 10.5229 84.6164 13.4912C84.6902 12.6309 84.7639 11.7706 84.8399 10.8842C86.1105 6.48594 88.368 4.55795 91.7671 1.57341C95.5937 -0.339888 99.5341 -0.195951 103.685 0.381626Z" fill="#59446A"/>
<path d="M97.726 163.656C100.184 164.177 100.184 164.177 102.493 164.847C103.129 167.5 103.746 170.158 104.355 172.817C104.701 174.297 105.047 175.776 105.403 177.3C106.475 184.118 104.844 188.778 101.301 194.642C99.0377 197.071 96.9253 198.675 94.1507 200.601C92.5775 200.601 91.0044 200.601 89.3835 200.601C88.597 202.567 87.8104 204.534 87 206.56C87.7865 207.346 88.5731 208.133 89.3835 208.943C89.0949 211.522 89.0949 211.522 88.3407 214.455C88.098 215.429 87.8553 216.403 87.6052 217.407C87.3056 218.527 87.3056 218.527 87 219.669C89.3597 220.456 91.7194 221.242 94.1507 222.053C94.8955 226.075 94.8955 226.075 95.3424 230.395C94.5559 231.182 93.7693 231.968 92.9589 232.779C92.3104 236.321 92.3104 236.321 91.9859 240.488C91.8376 242.029 91.6894 243.57 91.5367 245.158C91.3893 246.791 91.2427 248.426 91.0967 250.06C90.8034 253.251 90.502 256.441 90.1982 259.631C90.0699 261.051 89.9415 262.472 89.8092 263.935C89.3835 267.34 89.3835 267.34 88.1917 269.724C82.7715 269.937 78.8012 269.721 73.8904 267.34C74.5133 264.048 75.2117 260.993 76.2739 257.806C74.3075 257.02 72.3411 256.233 70.315 255.423C69.4532 256.176 69.4532 256.176 68.5739 256.945C67.8211 257.598 67.0684 258.251 66.2928 258.924C65.5461 259.573 64.7995 260.223 64.0303 260.893C59.9691 264.21 56.5693 264.18 51.4747 264.082C48.863 263.765 48.863 263.765 45.958 262.052C40.6781 253.393 41.6891 244.349 43.202 234.715C43.3633 233.543 43.5246 232.371 43.6908 231.163C44.9503 222.559 44.9503 222.559 47.6712 218.477C50.4242 219.264 53.1772 220.051 56.0137 220.861C56.281 220.058 56.5483 219.254 56.8237 218.426C58.8452 213.899 61.5773 210.169 64.5051 206.187C65.0628 205.418 65.6204 204.649 66.195 203.857C67.5627 201.973 68.9381 200.095 70.315 198.217C71.8882 198.61 73.4613 199.004 75.0822 199.409C77.8313 196.173 77.8313 196.173 77.0188 193.227C76.6501 191.567 76.6501 191.567 76.2739 189.875C76.3231 188.326 76.3723 186.778 76.4229 185.182C76.5222 180.388 74.9169 177.433 72.6986 173.19C73.071 170.359 73.071 170.359 73.8904 168.423C74.7261 168.791 75.5619 169.16 76.4229 169.54C81.5681 171.48 81.5681 171.48 87 171.998C90.9423 169.693 94.4955 166.886 97.726 163.656Z" fill="#FDCAB7"/>
<path d="M76.274 102.875C76.274 115.853 76.274 128.832 76.274 142.203C74.5042 142.793 74.5042 142.793 72.6987 143.395C72.3054 144.182 71.9121 144.968 71.5069 145.779C70.7203 145.779 69.9338 145.779 69.1234 145.779C69.8244 150.202 70.5516 154.62 71.2835 159.037C71.4809 160.285 71.6783 161.532 71.8817 162.818C72.9747 169.334 74.3089 174.476 77.4658 180.34C77.7731 183.218 77.7731 183.218 77.6148 185.852C77.4636 188.725 77.3983 190.832 78.1967 193.608C78.3488 194.343 78.5009 195.077 78.6576 195.834C76.3485 198.515 76.3485 198.515 73.8905 200.601C72.1207 200.011 72.1207 200.011 70.3151 199.409C63.236 210.028 63.236 210.028 56.0138 220.861C46.6285 219.52 46.6285 219.52 42.9042 217.286C44.5847 203.404 46.5575 189.599 49.2355 175.871C49.4455 174.711 49.6555 173.55 49.8718 172.354C51.5753 163.987 54.8001 157.592 59.5891 150.546C58.6499 150.004 57.7106 149.463 56.7429 148.905C52.8874 146.509 51.7478 145.25 50.0549 141.012C49.5441 136.434 49.5562 131.907 49.6079 127.306C49.5941 126.076 49.5803 124.845 49.566 123.577C49.5957 115.905 50.1644 111.236 55.6413 105.556C61.9096 102.168 69.3585 102.875 76.274 102.875Z" fill="#04B7D8"/>
<path d="M174 102.875C176.858 102.947 179.71 103.05 182.566 103.173C183.369 103.19 184.171 103.206 184.998 103.224C190.753 103.505 193.775 104.766 197.836 108.834C200.407 113.976 199.301 120.839 199.325 126.487C199.35 127.904 199.374 129.321 199.4 130.782C199.406 132.15 199.412 133.518 199.418 134.927C199.435 136.805 199.435 136.805 199.452 138.72C198.965 142.716 197.819 144.937 195.452 148.162C192.354 149.898 189.34 150.672 185.918 151.738C186.397 152.449 186.876 153.161 187.369 153.894C192.107 161.287 194.637 167.877 196.271 176.467C196.629 178.216 196.629 178.216 196.994 180.001C199.437 192.342 201.123 204.796 202.603 217.286C198.43 219.193 195.276 220.239 190.685 219.669C188.515 217.647 188.515 217.647 186.537 214.842C185.814 213.836 185.091 212.831 184.347 211.795C183.611 210.731 182.876 209.667 182.119 208.571C181.37 207.521 180.621 206.471 179.849 205.389C173.192 196.025 170.559 190.461 172.273 178.93C172.565 177.238 172.868 175.548 173.181 173.86C173.339 172.972 173.498 172.084 173.662 171.17C174.692 165.645 176.142 160.507 178.083 155.229C179.307 151.115 179.216 147.66 178.767 143.395C177.587 142.609 176.407 141.822 175.192 141.012C174.789 138.062 174.609 135.394 174.582 132.437C174.56 131.593 174.539 130.75 174.517 129.882C174.452 127.186 174.412 124.49 174.372 121.794C174.333 119.968 174.292 118.141 174.249 116.315C174.148 111.835 174.068 107.355 174 102.875Z" fill="#13BBDB"/>
<path d="M160.89 101.683C165.217 101.683 169.543 101.683 174 101.683C175.382 105.828 175.327 109.058 175.308 113.429C175.306 114.217 175.305 115.006 175.303 115.818C175.296 118.332 175.281 120.845 175.266 123.358C175.26 125.065 175.255 126.771 175.25 128.477C175.237 132.655 175.216 136.834 175.192 141.012C176.765 141.798 178.338 142.585 179.959 143.395C180.642 150.088 179.443 155.836 177.501 162.24C177.287 163.025 177.073 163.809 176.853 164.617C175.366 169.2 174.195 170.693 169.982 173.129C164.5 174.717 161.687 175.304 156.468 172.883C152.954 170.42 150.358 168.295 147.781 164.847C146.168 155.296 148.829 145.682 153.74 137.436C154.133 137.043 154.526 136.65 154.931 136.245C156.898 136.245 158.864 136.245 160.89 136.245C160.89 124.839 160.89 113.434 160.89 101.683Z" fill="#7049AB"/>
<path d="M76.2739 102.875C76.2739 115.853 76.2739 128.832 76.2739 142.203C74.5041 142.793 74.5041 142.793 72.6986 143.395C71.7891 144.378 70.8796 145.362 69.9426 146.375C66.2733 149.788 64.5604 150.546 59.589 150.546C54.5363 148.431 52.2598 145.972 50.0547 141.012C49.5258 136.437 49.5561 131.907 49.6078 127.306C49.594 126.076 49.5802 124.845 49.5659 123.577C49.5956 115.905 50.1643 111.236 55.6412 105.556C61.9095 102.168 69.3584 102.875 76.2739 102.875Z" fill="#0CDDB2"/>
<path d="M174 102.875C176.858 102.947 179.71 103.05 182.566 103.173C183.369 103.19 184.171 103.206 184.998 103.224C190.753 103.505 193.776 104.766 197.836 108.834C200.407 113.976 199.301 120.839 199.325 126.487C199.35 127.904 199.375 129.321 199.4 130.782C199.406 132.15 199.412 133.518 199.418 134.927C199.435 136.805 199.435 136.805 199.452 138.72C198.966 142.71 197.789 144.925 195.452 148.162C191.377 151.219 187.282 150.736 182.342 150.546C181.826 149.415 181.31 148.285 180.778 147.12C179.014 143.156 179.014 143.156 175.192 141.012C174.789 138.062 174.609 135.394 174.582 132.437C174.561 131.593 174.539 130.75 174.517 129.882C174.452 127.186 174.412 124.49 174.372 121.794C174.333 119.968 174.292 118.141 174.249 116.315C174.148 111.835 174.068 107.355 174 102.875Z" fill="#01DCAF"/>
<path d="M97.726 163.656C100.184 164.177 100.184 164.177 102.493 164.847C103.129 167.5 103.746 170.158 104.355 172.817C104.701 174.297 105.047 175.776 105.403 177.3C106.475 184.118 104.844 188.778 101.301 194.642C99.0377 197.071 96.9253 198.675 94.1507 200.601C92.5775 200.601 91.0044 200.601 89.3835 200.601C87.52 202.403 87.52 202.403 86.1061 204.772C85.3411 205.933 85.3411 205.933 84.5606 207.118C84.1857 207.72 83.8108 208.323 83.4246 208.943C79.8827 207.603 77.0672 206.294 73.8904 204.176C74.6207 200.646 75.3846 198.955 77.4657 195.834C77.1235 193.837 76.7134 191.852 76.274 189.875C76.3231 188.326 76.3723 186.778 76.4229 185.182C76.5222 180.388 74.9169 177.433 72.6986 173.19C73.071 170.359 73.071 170.359 73.8904 168.423C75.144 168.976 75.144 168.976 76.4229 169.54C81.5681 171.48 81.5681 171.48 87 171.998C90.9423 169.693 94.4955 166.886 97.726 163.656Z" fill="#F6C3B3"/>
<path d="M89.3837 110.025C89.777 110.025 90.1702 110.025 90.5755 110.025C90.5755 119.464 90.5755 128.903 90.5755 138.628C91.7553 138.628 92.9352 138.628 94.1508 138.628C98.2219 142.536 99.1777 147.556 100.11 152.93C100.309 153.81 100.509 154.69 100.715 155.597C101.14 158.749 101.151 160.632 100.11 163.656C96.2497 167.75 92.1443 170.893 87.0001 173.19C82.2597 172.842 78.147 171.743 73.8905 169.614C69.0997 162.428 68.8168 154.211 69.1234 145.779C70.3033 145.779 71.4831 145.779 72.6987 145.779C73.8049 145.189 74.911 144.599 76.0506 143.991C80.0939 142.088 82.5977 141.889 87.0001 142.203C87.0001 141.417 87.0001 140.63 87.0001 139.82C87.7867 139.82 88.5733 139.82 89.3837 139.82C89.3837 129.988 89.3837 120.156 89.3837 110.025Z" fill="#6F4DA8"/>
<path d="M85.8082 220.861C89.2346 220.638 89.2346 220.638 92.9589 220.861C95.5202 224.703 95.7988 225.946 95.3425 230.395C94.5559 231.182 93.7693 231.968 92.9589 232.779C92.3105 236.321 92.3105 236.321 91.9859 240.488C91.8377 242.029 91.6894 243.57 91.5367 245.158C91.3894 246.792 91.2427 248.426 91.0967 250.06C90.8034 253.251 90.502 256.441 90.1982 259.631C90.0699 261.051 89.9415 262.472 89.8092 263.935C89.3836 267.341 89.3836 267.341 88.1918 269.724C82.7715 269.937 78.8012 269.722 73.8904 267.341C74.5133 264.048 75.2117 260.993 76.274 257.806C73.3243 256.626 73.3243 256.626 70.3151 255.423C71.0525 252.094 72.064 249.236 73.5831 246.186C73.9933 245.363 74.4035 244.54 74.8261 243.691C75.2548 242.843 75.6834 241.995 76.125 241.121C76.5444 240.273 76.9638 239.425 77.3959 238.552C79.5194 234.32 81.7242 230.583 84.6164 226.82C85.4678 223.663 85.4678 223.663 85.8082 220.861Z" fill="#F8CD6F"/>
<path d="M160.89 101.683C160.89 113.088 160.89 124.494 160.89 136.245C151.342 136.245 141.547 136.243 133.777 130.062C131.741 125.48 131.95 122.164 132.288 117.176C133.065 116.887 133.842 116.598 134.643 116.301C142.464 113.302 148.84 109.817 155.229 104.364C158.507 101.683 158.507 101.683 160.89 101.683Z" fill="#04DBAF"/>
<path d="M159.699 214.902C160.148 216.345 160.148 216.345 160.606 217.816C162.369 222.877 164.456 227.734 166.626 232.63C167.02 233.541 167.414 234.452 167.82 235.391C170.272 240.935 173.03 245.974 176.447 250.987C177.575 253.039 177.575 253.039 177.575 256.614C175.216 257.204 175.216 257.204 172.808 257.806C172.808 258.986 172.808 260.166 172.808 261.382C168.16 264.48 163.9 263.945 158.507 263.765C156.152 249.135 156.152 249.135 155.867 241.81C155.833 240.95 155.798 240.09 155.762 239.203C155.706 237.522 155.669 235.839 155.653 234.157C155.616 231.567 155.616 231.567 154.931 228.012C152.651 226.179 152.651 226.179 150.164 225.628C149.733 219.158 149.733 219.158 151.58 216.243C154.408 214.488 156.432 214.637 159.699 214.902Z" fill="#F8CC70"/>
<path d="M106.069 125.519C107.212 125.823 107.212 125.823 108.378 126.133C111.471 126.622 113.993 126.729 117.093 126.617C118.475 126.571 118.475 126.571 119.886 126.524C121.798 126.45 123.71 126.356 125.621 126.245C130.985 126.102 132.81 126.16 137.129 129.708C138.272 131.174 138.272 131.174 139.438 132.669C137.539 139.846 132.094 143.768 125.956 147.418C117.759 149.324 111.605 149.082 104.206 144.811C99.111 141.591 99.111 141.591 97.7261 137.436C98.6601 136.576 99.5942 135.716 100.557 134.829C103.499 131.676 104.796 129.566 106.069 125.519Z" fill="#FAC7B5"/>
<path d="M77.4657 101.683C81.4889 101.981 84.8189 103.963 87.8569 106.549C91.3199 111.731 90.0811 118.725 89.8305 124.699C89.7982 126.15 89.766 127.601 89.7327 129.096C89.6486 132.673 89.5311 136.245 89.3836 139.82C88.597 139.82 87.8104 139.82 87 139.82C87 140.607 87 141.393 87 142.204C85.5743 142.523 84.1487 142.843 82.6798 143.172C78.2064 144.278 74.3661 145.934 70.3151 148.162C71.1016 146.196 71.8882 144.23 72.6986 142.204C73.8785 142.204 75.0584 142.204 76.274 142.204C76.2677 141.018 76.2615 139.833 76.2551 138.612C76.2335 134.23 76.2198 129.848 76.2085 125.466C76.2025 123.567 76.1944 121.667 76.1841 119.768C76.1697 117.043 76.1629 114.319 76.1576 111.594C76.1514 110.74 76.1453 109.886 76.1389 109.006C76.1387 106.962 76.2002 104.918 76.274 102.875C76.6673 102.481 77.0605 102.088 77.4657 101.683Z" fill="#FD9549"/>
<path d="M160.891 101.683C165.217 101.683 169.543 101.683 174 101.683C175.002 106.69 175.261 110.257 175.048 115.263C174.99 116.695 174.932 118.128 174.873 119.604C174.806 121.089 174.739 122.574 174.67 124.103C174.608 125.611 174.546 127.119 174.482 128.673C174.328 132.389 174.167 136.104 174 139.82C169.674 138.64 165.348 137.46 160.891 136.245C160.891 124.839 160.891 113.434 160.891 101.683Z" fill="#FC974A"/>
<path d="M90.5753 111.217C93.525 112.397 93.525 112.397 96.5342 113.601C99.7068 114.808 102.888 115.99 106.068 117.176C106.639 123.481 107.026 128.604 103.238 133.936C100.11 137.436 100.11 137.436 97.726 138.628C95.3663 138.628 93.0066 138.628 90.5753 138.628C90.5753 129.583 90.5753 120.537 90.5753 111.217Z" fill="#04DBAF"/>
<path d="M98.9178 194.642C99.7044 194.642 100.491 194.642 101.301 194.642C102.041 218.268 102.041 218.268 97.726 226.82C96.9395 227.213 96.1529 227.607 95.3425 228.012C95.0967 227.053 94.8509 226.095 94.5976 225.107C94.0568 224.099 93.5161 223.091 92.9589 222.053C89.3207 220.982 89.3207 220.982 85.8082 220.861C86.0079 220.056 86.2077 219.251 86.4134 218.422C86.6562 217.359 86.8989 216.296 87.149 215.2C87.3979 214.149 87.6467 213.099 87.9032 212.016C88.2286 208.552 87.6377 207.076 85.8082 204.176C87.2235 201.867 87.2235 201.867 89.3836 199.409C91.3598 198.964 93.3472 198.566 95.3425 198.217C97.3293 196.43 97.3293 196.43 98.9178 194.642Z" fill="#6E4CAA"/>
<path d="M218.096 149.354C218.882 149.354 219.669 149.354 220.479 149.354C222.048 153.668 222.863 156.619 222.863 161.272C226.009 162.059 229.156 162.845 232.397 163.655C232.397 164.442 232.397 165.229 232.397 166.039C231.095 166.383 229.792 166.727 228.449 167.082C225.153 168.437 224.238 169.223 222.705 172.505C221.832 175.501 221.083 178.471 220.479 181.532C219.693 181.139 218.906 180.746 218.096 180.34C217.342 177.617 217.342 177.617 216.755 174.307C216.555 173.212 216.356 172.116 216.15 170.988C216.006 170.141 215.861 169.295 215.712 168.423C212.959 167.636 210.206 166.849 207.37 166.039C207.37 165.252 207.37 164.466 207.37 163.655C208.697 163.287 210.025 162.918 211.392 162.538C213.752 161.677 213.752 161.677 215.712 160.08C217.161 156.573 217.709 153.116 218.096 149.354Z" fill="#FFCD6A"/>
<path d="M30.9864 27.7925C31.773 28.1858 32.5596 28.5791 33.37 28.9843C34.0823 32.5394 34.2559 36.0913 34.5618 39.7104C38.1013 40.8902 41.6409 42.0701 45.2878 43.2857C42.2303 46.3432 39.9523 46.3134 35.7535 46.861C34.967 50.7939 34.1804 54.7268 33.37 58.7788C32.1901 58.7788 31.0102 58.7788 29.7946 58.7788C29.7194 58.046 29.6441 57.3132 29.5665 56.5582C28.8824 50.8097 28.8824 50.8097 25.3953 46.5445C22.8478 45.4408 22.8478 45.4408 19.0686 44.4775C19.4619 43.6909 19.8552 42.9043 20.2604 42.0939C21.4157 41.8727 22.5709 41.6515 23.7612 41.4235C27.5733 40.1483 27.5733 40.1483 28.3701 37.2151C28.7692 35.2746 29.1167 33.3227 29.4082 31.3632C29.7946 28.9843 29.7946 28.9843 30.9864 27.7925Z" fill="#FFCE6A"/>
<path d="M69.1233 146.971C69.6447 150.174 69.6447 150.174 69.1233 154.121C67.0692 155.504 65.0124 156.883 62.9363 158.232C53.5302 166.297 53.254 186.629 51.2466 198.217C50.8533 198.217 50.46 198.217 50.0548 198.217C48.3248 182.854 47.8203 167.798 57.0565 154.419C60.0596 150.904 64.1849 146.971 69.1233 146.971Z" fill="#11B9DA"/>
<path d="M145.397 194.642C152.754 199.415 156.246 202.706 158.507 211.327C158.507 212.507 158.507 213.687 158.507 214.902C157.573 215.123 156.639 215.345 155.676 215.573C152.079 217.095 152.079 217.095 150.984 221.606C150.713 222.933 150.443 224.261 150.164 225.628C147.781 224.436 147.781 224.436 146.449 221.522C145.102 216.097 145.139 211.079 145.248 205.517C145.259 204.469 145.27 203.421 145.281 202.342C145.309 199.775 145.352 197.209 145.397 194.642Z" fill="#7048AA"/>
<path d="M106.068 118.368C114.721 118.368 123.373 118.368 132.288 118.368C132.288 121.514 132.288 124.66 132.288 127.902C129.035 127.967 125.783 128.014 122.53 128.051C121.155 128.081 121.155 128.081 119.753 128.112C114.631 128.156 110.741 127.897 106.068 125.519C106.068 123.159 106.068 120.799 106.068 118.368Z" fill="#FDA38A"/>
<path d="M166.849 65.9295C167.243 65.9295 167.636 65.9295 168.041 65.9295C168.434 70.2557 168.828 74.5818 169.233 79.0391C170.019 76.6794 170.806 74.3196 171.616 71.8884C173.851 72.2608 173.851 72.2608 176.384 73.0802C179.097 77.15 178.972 79.0676 178.213 83.8016C177.214 87.5418 175.68 89.5876 172.808 92.1487C168.935 93.117 168.935 93.117 165.657 93.3405C165.264 92.5539 164.871 91.7673 164.466 90.9569C164.834 89.8754 165.203 88.7938 165.583 87.6795C167.804 80.6875 167.03 73.175 166.849 65.9295Z" fill="#EC9886"/>
<path d="M67.9316 70.6967C68.9288 73.8238 69.9213 76.9524 70.911 80.0819C71.1952 80.9714 71.4794 81.8609 71.7723 82.7774C73.8905 89.4951 73.8905 89.4951 73.8905 92.1487C69.2234 91.8795 66.3512 91.5954 62.643 88.6479C60.0742 83.6129 59.6882 78.6422 60.7809 73.0802C64.3562 70.6967 64.3562 70.6967 67.9316 70.6967Z" fill="#F49A86"/>
<path d="M78.6575 192.258C80.2285 192.963 81.7913 193.687 83.3501 194.418C84.6567 195.02 84.6567 195.02 85.9897 195.633C88.1918 197.025 88.1918 197.025 89.3835 200.601C88.1964 202.775 88.1964 202.775 86.4786 204.995C85.9148 205.737 85.3509 206.48 84.77 207.244C84.3261 207.805 83.8821 208.365 83.4246 208.943C79.8827 207.603 77.0672 206.294 73.8904 204.176C74.7312 199.804 76.6045 196.186 78.6575 192.258Z" fill="#E2A767"/>
<path d="M28.6027 157.697C29.3893 157.697 30.1759 157.697 30.9863 157.697C31.2812 158.827 31.5762 159.958 31.8801 161.123C32.9953 164.951 32.9953 164.951 35.9024 166.486C36.6398 166.732 37.3772 166.978 38.137 167.231C37.3504 168.018 36.5638 168.804 35.7534 169.615C34.5735 169.615 33.3937 169.615 32.1781 169.615C31.7848 172.368 31.3915 175.121 30.9863 177.957C30.1997 177.957 29.4131 177.957 28.6027 177.957C28.3077 176.826 28.0128 175.696 27.7089 174.531C26.5937 170.703 26.5937 170.703 23.6866 169.168C22.9492 168.922 22.2118 168.676 21.452 168.423C22.6438 166.039 22.6438 166.039 26.2191 164.847C27.6793 161.262 27.6793 161.262 28.6027 157.697Z" fill="#FFCD6B"/>
<path d="M203.794 71.8884C204.581 72.2817 205.368 72.675 206.178 73.0802C206.923 76.73 206.923 76.73 207.37 80.2309C209.336 80.6242 211.303 81.0175 213.329 81.4227C213.329 82.2092 213.329 82.9958 213.329 83.8062C212.616 83.8308 211.903 83.8554 211.169 83.8807C208.045 84.8843 208.045 84.8843 206.476 89.2437C205.984 90.5957 205.493 91.9476 204.986 93.3405C202.603 90.9569 202.603 90.9569 202.454 87.8285C202.503 86.8944 202.552 85.9604 202.603 84.998C200.636 84.6047 198.67 84.2114 196.644 83.8062C196.644 83.0197 196.644 82.2331 196.644 81.4227C198.61 81.0294 200.577 80.6361 202.603 80.2309C202.996 77.4779 203.389 74.7249 203.794 71.8884Z" fill="#FFCE6A"/>
<path d="M191.877 104.067C195.094 106.212 197.29 107.742 199.027 111.217C199.075 113.998 199.079 116.779 199.027 119.56C197.847 119.953 196.668 120.346 195.452 120.751C195.108 119.252 194.764 117.753 194.409 116.208C193.124 112.63 192.444 111.498 188.986 109.788C185.987 108.919 183.031 108.195 179.959 107.642C179.959 106.855 179.959 106.069 179.959 105.258C184.032 104.005 187.629 103.633 191.877 104.067Z" fill="#4CE8C5"/>
<path d="M46.4795 218.478C49.2325 219.264 51.9855 220.051 54.822 220.861C54.2474 221.969 53.6728 223.076 53.0809 224.218C52.3201 225.706 51.5597 227.194 50.7997 228.682C50.4218 229.408 50.0439 230.134 49.6545 230.882C47.1551 235.802 45.4593 240.538 44.096 245.888C43.7027 245.888 43.3094 245.888 42.9042 245.888C43.5197 236.607 44.6308 227.596 46.4795 218.478Z" fill="#FEA28A"/>
<path d="M159.699 214.902C160.518 217.658 160.518 217.658 160.89 220.861C159.252 222.649 159.252 222.649 157.315 224.436C156.455 227.542 156.455 227.542 156.123 230.395C155.73 229.609 155.337 228.822 154.931 228.012C152.528 226.661 152.528 226.661 150.164 225.628C149.733 219.158 149.733 219.158 151.58 216.243C154.408 214.488 156.432 214.637 159.699 214.902Z" fill="#EF8E54"/>
<path d="M78.6575 237.546C79.0508 237.546 79.4441 237.546 79.8493 237.546C79.9462 239.829 80.0154 242.114 80.0728 244.399C80.1142 245.671 80.1557 246.943 80.1985 248.253C79.8145 252.205 78.9299 253.742 76.274 256.614C74.3075 256.221 72.3411 255.828 70.3151 255.423C71.1345 251.066 73.0019 247.654 75.1567 243.803C76.1361 242.042 76.1361 242.042 77.1352 240.246C77.8888 238.909 77.8888 238.909 78.6575 237.546Z" fill="#FA994D"/>
<path d="M166.849 237.546C169.968 240.393 172.048 243.47 174.223 247.08C175.171 248.629 175.171 248.629 176.137 250.209C177.575 253.039 177.575 253.039 177.575 256.614C176.395 257.008 175.216 257.401 174 257.806C168.157 252.263 167.294 248.141 166.9 240.162C166.884 239.299 166.867 238.435 166.849 237.546Z" fill="#FA9B51"/>
<path d="M76.274 106.45C77.0605 106.45 77.8471 106.45 78.6575 106.45C78.2642 117.855 77.871 129.261 77.4657 141.012C78.2523 140.618 79.0389 140.225 79.8493 139.82C82.2324 139.772 84.617 139.768 87 139.82C87 140.607 87 141.393 87 142.203C85.5743 142.523 84.1487 142.843 82.6798 143.172C78.2064 144.278 74.3661 145.934 70.3151 148.162C71.1016 146.196 71.8882 144.23 72.6986 142.203C73.8785 142.203 75.0584 142.203 76.274 142.203C76.274 130.405 76.274 118.606 76.274 106.45Z" fill="#E6A261"/>
<path d="M109.644 94.5323C115.937 94.5323 122.229 94.5323 128.712 94.5323C122.754 100.491 122.754 100.491 118.508 101.087C114.347 100.482 112.53 99.9174 109.644 96.9158C109.644 96.1293 109.644 95.3427 109.644 94.5323Z" fill="#FFFDFC"/>
<path d="M85.8082 220.861C89.2346 220.638 89.2346 220.638 92.9589 220.861C95.5236 224.708 95.5819 225.967 95.3425 230.395C92.9828 231.575 92.9828 231.575 90.5754 232.779C90.1821 231.206 89.7888 229.633 89.3836 228.012C87.8104 227.618 86.2373 227.225 84.6165 226.82C85.0097 224.854 85.403 222.887 85.8082 220.861Z" fill="#F08F52"/>
<path d="M60.7808 155.313C61.5674 155.706 62.354 156.1 63.1644 156.505C62.4761 157.685 61.7879 158.865 61.0788 160.08C55.3105 171.596 53.2781 185.601 51.2466 198.217C50.8533 198.217 50.46 198.217 50.0548 198.217C50.4283 182.455 52.1175 168.927 60.7808 155.313Z" fill="#CBF0F7"/>
<path d="M143.014 88.5735C143.407 90.1466 143.8 91.7198 144.206 93.3406C139.617 96.3997 137.549 95.525 132.288 94.5324C131.894 92.9592 131.501 91.3861 131.096 89.7652C135.685 86.7061 137.753 87.5808 143.014 88.5735Z" fill="#FFA48C"/>
<path d="M100.11 87.3816C102.493 89.7651 102.493 89.7651 102.493 94.5323C99.2008 96.1784 96.597 95.9514 92.9589 95.724C92.1723 94.9375 91.3857 94.1509 90.5753 93.3405C90.8733 90.8824 90.8733 90.8824 91.7671 88.5734C94.7618 87.076 96.7928 87.1328 100.11 87.3816Z" fill="#FFA48B"/>
<path d="M73.8905 175.573C76.9346 179.08 77.8847 181.068 77.6148 185.704C77.465 188.62 77.3892 190.799 78.1968 193.618C78.3489 194.349 78.5009 195.08 78.6576 195.834C76.3486 198.515 76.3486 198.515 73.8905 200.601C73.1039 200.207 72.3174 199.814 71.507 199.409C72.5498 193.748 72.5498 193.748 73.8905 191.067C73.9751 188.436 73.9908 185.803 73.965 183.171C73.9489 181.046 73.9489 181.046 73.9324 178.879C73.9186 177.788 73.9048 176.697 73.8905 175.573Z" fill="#369FAD"/>
<path d="M199.027 218.478C199.814 224.377 200.601 230.276 201.411 236.354C198.081 233.024 196.629 230.751 194.633 226.597C194.112 225.523 193.591 224.449 193.055 223.342C192.666 222.524 192.277 221.705 191.877 220.861C196.346 218.478 196.346 218.478 199.027 218.478Z" fill="#FCA28A"/>
<path d="M174 107.642C174.393 107.642 174.787 107.642 175.192 107.642C175.222 108.664 175.251 109.686 175.282 110.739C175.396 114.542 175.514 118.344 175.635 122.146C175.687 123.79 175.737 125.434 175.784 127.078C175.854 129.444 175.93 131.811 176.006 134.178C176.05 135.601 176.094 137.024 176.139 138.49C176.338 141.518 176.697 144.083 177.575 146.971C176.764 146.233 175.953 145.496 175.117 144.736C171.07 141.808 168.088 140.953 163.274 139.82C163.274 139.427 163.274 139.033 163.274 138.628C166.42 138.628 169.567 138.628 172.808 138.628C173.201 128.403 173.595 118.177 174 107.642Z" fill="#ABC4AD"/>
<path d="M79.8493 194.642C82.209 195.822 84.5687 197.002 87 198.217C86.1061 201.122 86.1061 201.122 84.6164 204.176C82.3073 205.294 82.3073 205.294 79.8493 205.368C78.6694 204.581 77.4895 203.795 76.2739 202.984C77.0042 199.455 77.7681 197.764 79.8493 194.642Z" fill="#E5E6EB"/>
<path d="M139.438 73.0803C141.822 75.4638 141.822 75.4638 142.194 78.3688C141.822 81.4228 141.822 81.4228 140.481 83.6573C137.148 85.657 134.746 84.6987 131.096 83.8063C131.096 82.6265 131.096 81.4466 131.096 80.231C133.062 80.6243 135.029 81.0175 137.055 81.4228C137.448 79.8496 137.841 78.2765 138.247 76.6556C137.067 75.8691 135.887 75.0825 134.671 74.2721C134.671 75.0586 134.671 75.8452 134.671 76.6556C133.098 76.6556 131.525 76.6556 129.904 76.6556C130.297 75.4758 130.691 74.2959 131.096 73.0803C134.321 71.4678 136.021 72.1406 139.438 73.0803Z" fill="#F2E9E9"/>
<path d="M102.493 2.7652C103.28 3.55177 104.066 4.33835 104.877 5.14876C104.144 5.19331 103.411 5.23786 102.656 5.28377C101.211 5.40129 101.211 5.40129 99.7372 5.52119C98.7831 5.59032 97.8291 5.65946 96.8462 5.73068C93.689 6.44501 92.7149 7.57554 90.5753 9.91588C89.7888 9.91588 89.0022 9.91588 88.1918 9.91588C87.7985 8.34273 87.4052 6.76958 87 5.14876C91.4327 0.330625 96.6075 1.25402 102.493 2.7652Z" fill="#A094A9"/>
<path d="M99.1413 72.3354C99.8541 72.5812 100.567 72.827 101.301 73.0802C100.539 73.3506 99.7774 73.621 98.9923 73.8996C96.2102 75.288 96.2102 75.288 95.6404 78.5922C95.5421 79.5263 95.4438 80.4603 95.3425 81.4227C97.3089 81.4227 99.2753 81.4227 101.301 81.4227C102.088 79.4563 102.875 77.4898 103.685 75.4638C104.078 75.4638 104.472 75.4638 104.877 75.4638C105.144 78.7589 105.261 80.7824 103.536 83.6573C101.301 84.998 101.301 84.998 97.5771 84.7746C96.4464 84.455 95.3157 84.1355 94.1507 83.8063C92.489 80.4828 92.6531 77.9418 92.9589 74.272C96.5343 71.8884 96.5343 71.8884 99.1413 72.3354Z" fill="#F4EBEB"/>
<path d="M26.2191 80.2309C27.0057 80.2309 27.7923 80.2309 28.6027 80.2309C28.5781 81.7057 28.5536 83.1806 28.5282 84.7001C28.5221 88.173 28.686 91.2066 29.7945 94.5323C24.1335 92.2977 24.1335 92.2977 21.452 90.9569C21.452 89.7771 21.452 88.5972 21.452 87.3816C22.6319 87.3816 23.8118 87.3816 25.0274 87.3816C25.4207 85.0219 25.8139 82.6621 26.2191 80.2309Z" fill="#503B61"/>
<path d="M247.89 189.875C246.699 192.258 246.699 192.258 243.123 194.642C244.303 196.412 244.303 196.412 245.507 198.217C242.081 197.919 242.081 197.919 238.356 197.025C236.718 194.567 236.718 194.567 235.973 192.258C243.868 188.534 243.868 188.534 247.89 189.875Z" fill="#4C385B"/>
<path d="M83.4247 98.1076C84.2113 98.1076 84.9978 98.1076 85.8082 98.1076C87.0536 99.5016 88.2348 100.953 89.3836 102.428C94.1254 108.062 99.6196 111.367 106.069 114.793C102.493 115.984 102.493 115.984 100.268 114.965C87.0285 106.181 87.0285 106.181 83.4247 100.491C83.4247 99.7046 83.4247 98.918 83.4247 98.1076Z" fill="#FFF3EF"/>
<path d="M134.671 74.272C136.244 75.0586 137.817 75.8452 139.438 76.6556C139.045 78.2287 138.652 79.8019 138.247 81.4227C136.273 81.8782 134.284 82.2736 132.288 82.6145C131.096 81.4227 131.096 81.4227 131.021 78.3688C131.046 77.4101 131.071 76.4515 131.096 75.4638C132.276 75.8571 131.784 74.5948 133 75C133 74.2134 134.671 75.0824 134.671 74.272Z" fill="#5F4B6E"/>
<path d="M96.5343 74.272C97.7142 74.272 98.8941 74.272 100.11 74.272C100.503 75.0586 101.095 74.6534 101.5 75.4638C102.287 75.4638 102.875 76.6556 103.685 76.6556C103.292 78.2287 102.898 79.8019 102.493 81.4227C98.0241 82.7635 98.0241 82.7635 95.3426 81.4227C95.2916 79.4371 95.2941 77.4495 95.3426 75.4638C95.7358 75.0705 96.1291 74.6772 96.5343 74.272Z" fill="#5E4A6D"/>
<path d="M131.096 64.7378C138.079 64.2722 138.079 64.2722 140.63 64.7378C142.203 66.3109 143.776 67.8841 145.397 69.5049C140.678 69.1116 135.958 68.7183 131.096 68.3131C131.096 67.1332 131.096 65.9534 131.096 64.7378Z" fill="#735873"/>
<path d="M87 139.82C87 140.606 87 141.393 87 142.203C84.8615 142.683 84.8615 142.683 82.6798 143.172C78.2064 144.278 74.3661 145.934 70.3151 148.162C71.0599 145.332 71.0599 145.332 72.6986 142.203C77.5209 139.902 81.7064 139.568 87 139.82Z" fill="#D6CBE1"/>
<path d="M89.3836 199.409C90.5634 199.802 91.7433 200.196 92.9589 200.601C92.5656 202.567 92.1723 204.534 91.7671 206.56C90.194 206.953 88.6208 207.346 87 207.751C87 202.984 87 202.984 89.3836 199.409Z" fill="#07DAAD"/>
<path d="M101.301 64.7377C101.301 65.9175 101.301 67.0974 101.301 68.313C94.8121 69.4929 94.8121 69.4929 88.1918 70.6966C88.1918 69.91 88.1918 69.1234 88.1918 68.313C92.6249 64.923 95.7881 64.353 101.301 64.7377Z" fill="#654D6D"/>
<path d="M84.6165 223.245C86.6021 223.194 88.5896 223.196 90.5754 223.245C91.7671 224.436 91.7671 224.436 91.8416 227.49C91.817 228.449 91.7925 229.408 91.7671 230.395C90.9806 230.395 90.194 230.395 89.3836 230.395C89.3836 229.609 89.3836 228.822 89.3836 228.012C87.8104 227.618 86.2373 227.225 84.6165 226.82C84.6165 225.64 84.6165 224.46 84.6165 223.245Z" fill="#7A4EA4"/>
<path d="M153.74 218.478C156.099 218.478 158.459 218.478 160.89 218.478C159.258 222.245 158.52 223.236 154.932 225.628C153.74 224.436 153.74 224.436 153.665 221.383C153.69 220.424 153.714 219.465 153.74 218.478Z" fill="#754BA7"/>
<path d="M75.0822 199.409C75.4754 200.589 75.8687 201.769 76.2739 202.984C80.4594 204.45 80.4594 204.45 84.6164 205.368C84.2231 206.548 83.8298 207.728 83.4246 208.943C79.8827 207.603 77.0672 206.294 73.8904 204.176C74.2837 202.603 74.677 201.03 75.0822 199.409Z" fill="#FBA160"/>
<path d="M23.8356 93.3405C23.0163 96.171 23.0163 96.171 21.4521 99.2994C18.3236 100.864 18.3236 100.864 15.4932 101.683C16.4227 96.2918 18.0931 93.3405 23.8356 93.3405Z" fill="#513B61"/>
<path d="M235.973 210.135C237.153 210.135 238.332 210.135 239.548 210.135C240.728 212.888 241.908 215.641 243.123 218.477C241.943 218.871 240.764 219.264 239.548 219.669C235.973 212.817 235.973 212.817 235.973 210.135Z" fill="#573968"/>
<path d="M244.315 166.039C245.495 166.432 246.675 166.826 247.89 167.231C245.73 170.806 245.73 170.806 243.123 174.382C241.943 174.382 240.764 174.382 239.548 174.382C240.983 171.41 242.473 168.802 244.315 166.039Z" fill="#543664"/>
<path d="M19.0685 123.135C19.8551 123.528 20.6417 123.922 21.4521 124.327C20.0795 127.268 19.0115 129.151 16.685 131.477C15.5051 131.477 14.3252 131.477 13.1096 131.477C14.6506 128.04 16.2791 125.671 19.0685 123.135Z" fill="#543F65"/>
<path d="M16.6849 87.3816C16.2916 88.5615 15.8983 89.7413 15.4931 90.9569C11.2474 92.3722 11.2474 92.3722 7.15063 93.3405C7.15063 92.1606 7.15063 90.9808 7.15063 89.7652C10.831 87.6621 12.1956 87.3816 16.6849 87.3816Z" fill="#533F65"/>
<path d="M22.6438 65.9295C26.2191 67.1213 26.2191 67.1213 27.6344 69.3559C28.6027 71.8884 28.6027 71.8884 28.6027 75.4638C27.4228 75.4638 26.243 75.4638 25.0274 75.4638C23.5297 72.0004 22.6438 69.7479 22.6438 65.9295Z" fill="#543D65"/>
<path d="M241.932 223.245C243.112 223.245 244.291 223.245 245.507 223.245C245.9 226.391 246.294 229.537 246.699 232.779C245.519 232.386 244.339 231.992 243.123 231.587C242.73 228.834 242.337 226.081 241.932 223.245Z" fill="#553C67"/>
<path d="M233.589 197.025C234.376 197.025 235.162 197.025 235.973 197.025C235.973 200.172 235.973 203.318 235.973 206.56C234.793 206.166 233.613 205.773 232.397 205.368C232.347 202.985 232.349 200.6 232.397 198.217C232.791 197.824 233.184 197.431 233.589 197.025Z" fill="#553D65"/>
<path d="M251.466 187.491C254.219 187.884 256.972 188.278 259.808 188.683C260.202 189.863 260.595 191.043 261 192.258C257.854 191.865 254.707 191.472 251.466 191.066C251.466 189.887 251.466 188.707 251.466 187.491Z" fill="#553C68"/>
<path d="M28.6027 112.409C29.3893 112.409 30.1758 112.409 30.9863 112.409C30.256 115.939 29.4921 117.63 27.4109 120.751C26.2311 120.751 25.0512 120.751 23.8356 120.751C25.1156 117.277 25.9547 115.057 28.6027 112.409Z" fill="#533F65"/>
<path d="M3.57533 95.7241C4.3619 95.7241 5.14848 95.7241 5.95889 95.7241C6.35217 96.5106 6.74546 97.2972 7.15067 98.1076C8.33053 98.5009 9.51039 98.8942 10.726 99.2994C10.726 100.479 10.726 101.659 10.726 102.875C7.89553 102.577 7.89553 102.577 4.76711 101.683C3.20289 99.2249 3.20289 99.2249 2.38354 96.9158C2.77683 96.5226 3.17012 96.1293 3.57533 95.7241Z" fill="#553B67"/>
<path d="M10.726 57.587C14.7478 58.2392 16.783 58.8442 20.2602 61.1624C20.2602 61.949 20.2602 62.7355 20.2602 63.5459C16.2384 62.8938 14.2032 62.2887 10.726 59.9706C10.726 59.184 10.726 58.3974 10.726 57.587Z" fill="#533E66"/>
<path d="M63.1643 37.3268C63.9509 37.3268 64.7375 37.3268 65.5479 37.3268C65.5479 38.1134 65.5479 38.9 65.5479 39.7104C67.121 40.1037 68.6942 40.497 70.315 40.9022C69.5284 42.4753 68.7418 44.0485 67.9314 45.6693C65.5479 44.1796 65.5479 44.1796 63.1643 42.094C63.1643 40.5208 63.1643 38.9477 63.1643 37.3268Z" fill="#70607D"/>
<path d="M243.123 237.546C244.303 237.546 245.483 237.546 246.699 237.546C245.656 243.207 245.656 243.207 244.315 245.888C243.135 245.888 241.955 245.888 240.74 245.888C241.526 243.135 242.313 240.382 243.123 237.546Z" fill="#503B61"/>
<path d="M258.616 194.642C258.616 195.822 258.616 197.002 258.616 198.217C255.47 198.611 252.324 199.004 249.082 199.409C249.082 198.623 249.082 197.836 249.082 197.026C255.935 194.642 255.935 194.642 258.616 194.642Z" fill="#543F66"/>
<path d="M235.973 177.957C237.152 177.957 238.332 177.957 239.548 177.957C238.761 181.103 237.975 184.25 237.164 187.491C236.378 187.491 235.591 187.491 234.781 187.491C234.632 180.638 234.632 180.638 235.973 177.957Z" fill="#524066"/>
<path d="M9.53433 133.861C10.3209 134.648 11.1075 135.434 11.9179 136.245C10.738 138.604 9.55816 140.964 8.34255 143.395C7.55597 143.395 6.7694 143.395 5.95898 143.395C6.85282 136.543 6.85282 136.543 9.53433 133.861Z" fill="#543F66"/>
<path d="M29.7946 98.1076C30.9744 98.5009 32.1543 98.8942 33.3699 99.2994C33.3699 102.446 33.3699 105.592 33.3699 108.834C32.5833 108.834 31.7967 108.834 30.9863 108.834C30.593 105.294 30.1998 101.754 29.7946 98.1076Z" fill="#563B66"/>
<path d="M237.164 248.272C236.771 249.452 236.378 250.632 235.973 251.847C233.22 252.241 230.467 252.634 227.63 253.039C227.63 252.253 227.63 251.466 227.63 250.656C231.094 249.158 233.346 248.272 237.164 248.272Z" fill="#553C66"/>
<path d="M150.164 218.478C150.558 218.478 150.951 218.478 151.356 218.478C151.356 220.444 151.356 222.41 151.356 224.436C153.716 225.026 153.716 225.026 156.123 225.628C155.73 227.201 155.337 228.775 154.931 230.395C154.931 229.609 154.931 228.822 154.931 228.012C153.358 227.225 151.785 226.439 150.164 225.628C150.164 223.268 150.164 220.909 150.164 218.478Z" fill="#DD8560"/>
<path d="M69.1233 145.779C72.6986 145.779 72.6986 145.779 75.0822 146.971C73.9023 148.74 73.9023 148.74 72.6986 150.546C72.6986 151.726 72.6986 152.906 72.6986 154.121C71.9121 154.121 71.1255 154.121 70.3151 154.121C69.9218 151.368 69.5285 148.615 69.1233 145.779Z" fill="#8A6ABA"/>
<path d="M5.95898 148.162C6.74556 148.162 7.53214 148.162 8.34255 148.162C8.73583 150.129 9.12912 152.095 9.53433 154.121C8.35446 154.121 7.1746 154.121 5.95898 154.121C5.95898 152.155 5.95898 150.188 5.95898 148.162Z" fill="#563D66"/>
<path d="M0 56.3953C1.96644 56.3953 3.93288 56.3953 5.9589 56.3953C5.9589 57.5752 5.9589 58.7551 5.9589 59.9707C3.99247 59.5774 2.02603 59.1841 0 58.7789C0 57.9923 0 57.2057 0 56.3953Z" fill="#533E68"/>
<path d="M201.411 202.984C202.591 203.378 203.771 203.771 204.986 204.176C204.986 204.963 204.986 205.749 204.986 206.56C203.806 206.56 202.627 206.56 201.411 206.56C201.411 205.38 201.411 204.2 201.411 202.984Z" fill="white"/>
</svg>
